<svg xmlns="http://www.w3.org/2000/svg" viewBox="0 0 1015.99 146.65"><defs><style>.cls-1{fill:#fff;}</style></defs><title>Asset 10</title><g id="Layer_2" data-name="Layer 2"><g id="Layer_1-2" data-name="Layer 1"><path class="cls-1" d="M7.33,1.56h55A33.43,33.43,0,0,1,67.47,2a39.6,39.6,0,0,1,5.34,1.24,36.51,36.51,0,0,1,5.24,2.06A32.63,32.63,0,0,1,82.9,8.17a28,28,0,0,1,4.17,3.65,22.31,22.31,0,0,1,3.23,4.44,21.4,21.4,0,0,1,2,5.24,20.5,20.5,0,0,1,.52,6,28.43,28.43,0,0,1-1.17,7.16,20.74,20.74,0,0,1-3.25,6.43,24,24,0,0,1-5.75,5.43,34.33,34.33,0,0,1-8.78,4.18,39.72,39.72,0,0,1,5.56,5.09,61,61,0,0,1,4.63,5.8q2.13,3,4,6.26c1.24,2.16,2.45,4.31,3.63,6.47.63,1.16,1.32,2.4,2,3.74s1.53,2.71,2.37,4.1,1.71,2.8,2.62,4.2,1.84,2.75,2.79,4,1.92,2.47,2.91,3.59a25.93,25.93,0,0,0,3,2.89,15,15,0,0,0,3,1.92,6.86,6.86,0,0,0,2.93.7v2.31l-31.95,0a56.63,56.63,0,0,1-3.74-6.23q-1.85-3.51-3.64-7.32T70.4,80.58c-1.24-2.64-2.51-5.19-3.83-7.66s-2.68-4.8-4.1-7A37.65,37.65,0,0,0,58,60.24a20.65,20.65,0,0,0-5-3.84A12,12,0,0,0,47.21,55h-5V90.24a9.1,9.1,0,0,0,.75,3.62A10.18,10.18,0,0,0,45,97,9.87,9.87,0,0,0,48,99.1a9,9,0,0,0,3.8.8h2.35v1.94H7.33V99.56H9.27A14.55,14.55,0,0,0,13,99.07a9.27,9.27,0,0,0,3.37-1.67,8.55,8.55,0,0,0,2.42-3.11,11.31,11.31,0,0,0,.92-4.83V14a11,11,0,0,0-.89-4.58A9.81,9.81,0,0,0,16.5,6.11a9.53,9.53,0,0,0-3.23-2A10.61,10.61,0,0,0,9.64,3.5H7.33ZM41.77,7V49.2h7a29.31,29.31,0,0,0,5.7-.51,21.58,21.58,0,0,0,4.64-1.43,17.75,17.75,0,0,0,3.7-2.17,16.25,16.25,0,0,0,2.82-2.8A17.9,17.9,0,0,0,67.66,39,20.63,20.63,0,0,0,69,35.46a27.84,27.84,0,0,0,.77-3.76A29,29,0,0,0,70,27.9a24.7,24.7,0,0,0-.22-3.74A22.33,22.33,0,0,0,69,20.47,20.33,20.33,0,0,0,67.56,17a17.81,17.81,0,0,0-5-5.94,18.29,18.29,0,0,0-3.64-2.15,21.37,21.37,0,0,0-4.46-1.39A26.67,26.67,0,0,0,49.15,7Z"/><path class="cls-1" d="M176.82.41,207,79.79c.41,1.07.81,2.15,1.22,3.24s.85,2.17,1.31,3.26,1,2.16,1.52,3.2a25,25,0,0,0,1.82,3,18.8,18.8,0,0,0,2.26,2.63,16.73,16.73,0,0,0,6.24,3.83,20.18,20.18,0,0,0,4.24,1v1.94H178.38V99.9a19.87,19.87,0,0,0,4-.59,10.43,10.43,0,0,0,2.78-1.16,6.27,6.27,0,0,0,1.75-1.58,5.48,5.48,0,0,0,.9-1.89,7.62,7.62,0,0,0,.22-2.09,13,13,0,0,0-.25-2.16,18.74,18.74,0,0,0-.57-2.11c-.22-.7-.45-1.35-.68-2l-8.54-22H147.79L140,87.11a15.21,15.21,0,0,0-.71,3.86,7.55,7.55,0,0,0,.78,3.79,8.16,8.16,0,0,0,3,3.19,14.83,14.83,0,0,0,5.87,2v1.94H118.73V99.9a14.27,14.27,0,0,0,5.72-2.33,21.28,21.28,0,0,0,4.46-4.18,29,29,0,0,0,3.33-5.28,52.58,52.58,0,0,0,2.38-5.63l29-82.07Zm-26.24,57.2,24.7.1L162.49,23.65Z"/><path class="cls-1" d="M326.57,1.56,261.17,96h41.41a36.68,36.68,0,0,0,7.26-.68,17,17,0,0,0,6.42-2.75,22.18,22.18,0,0,0,5.56-5.87,44.12,44.12,0,0,0,4.75-10.06h1.94l-3.88,25.18H230.54L295.6,7H256.88A18.45,18.45,0,0,0,244,12.16a21.91,21.91,0,0,0-4.49,6.42,28.47,28.47,0,0,0-2.4,9h-2.31l2.31-26Z"/><path class="cls-1" d="M393.12.41,423.3,79.79q.61,1.6,1.23,3.24c.41,1.08.84,2.17,1.31,3.26s1,2.16,1.51,3.2a26.33,26.33,0,0,0,1.82,3,19.49,19.49,0,0,0,2.26,2.63,16.67,16.67,0,0,0,6.25,3.83,20.18,20.18,0,0,0,4.24,1v1.94H394.69V99.9a19.87,19.87,0,0,0,4-.59,10.35,10.35,0,0,0,2.77-1.16,6.14,6.14,0,0,0,1.75-1.58,5.48,5.48,0,0,0,.9-1.89,7.62,7.62,0,0,0,.23-2.09,13,13,0,0,0-.26-2.16,18.7,18.7,0,0,0-.56-2.11c-.23-.7-.46-1.35-.68-2l-8.54-22H364.1l-7.76,22.8a14.8,14.8,0,0,0-.72,3.86,7.66,7.66,0,0,0,.79,3.79,8.21,8.21,0,0,0,3,3.19,14.89,14.89,0,0,0,5.87,2v1.94H335V99.9a14.23,14.23,0,0,0,5.71-2.33,21,21,0,0,0,4.46-4.18,29.09,29.09,0,0,0,3.34-5.28,52.58,52.58,0,0,0,2.38-5.63L380,.41Zm-26.23,57.2,24.7.1L378.8,23.65Z"/><path class="cls-1" d="M530.35.41a24.07,24.07,0,0,1,4.47.42q2.23.44,4.44,1l4.43,1a29.36,29.36,0,0,0,4.45.68,4,4,0,0,0,2.78-.61A7.08,7.08,0,0,0,552.81.41h2.31V26.34h-2.69a45.9,45.9,0,0,0-4.44-10,22.39,22.39,0,0,0-5.24-6,17,17,0,0,0-6.12-3,41.07,41.07,0,0,0-7.06-1.1,12.12,12.12,0,0,0-2.61.08A16.23,16.23,0,0,0,521.62,8a15.3,15.3,0,0,0-2.43,1.57,15,15,0,0,0-2.08,2A11.13,11.13,0,0,0,515.53,14a11.33,11.33,0,0,0-.92,2.74,11,11,0,0,0-.15,3.05,14.88,14.88,0,0,0,1.67,5.53,22.3,22.3,0,0,0,3.47,4.83,36.52,36.52,0,0,0,4.84,4.31q2.74,2,5.77,4t6.21,3.88q3.18,1.92,6.21,3.93t5.74,4.17A37.57,37.57,0,0,1,553.18,55q1.83,2.15,3.39,4.28a31.28,31.28,0,0,1,2.7,4.51,24.56,24.56,0,0,1,1.8,5.07,25.48,25.48,0,0,1,.65,5.91,26.11,26.11,0,0,1-.54,5.3,27.27,27.27,0,0,1-7.88,14,28.72,28.72,0,0,1-4.63,3.57,31.57,31.57,0,0,1-5.58,2.78,36.76,36.76,0,0,1-6.5,1.8,44.34,44.34,0,0,1-7.4.71,25.34,25.34,0,0,1-3.11-.11c-1.08-.11-2.17-.25-3.29-.43s-2.22-.38-3.35-.59-2.22-.45-3.3-.7L513,100.4c-1-.24-2-.45-2.87-.63s-1.73-.33-2.5-.45a14.7,14.7,0,0,0-2-.17,4.86,4.86,0,0,0-2.74.87,4.93,4.93,0,0,0-1.92,2.57H498.6L499,74h3.13a18.51,18.51,0,0,0,.66,4.38,25,25,0,0,0,1.63,4.32,26.46,26.46,0,0,0,2.5,4.1,30.9,30.9,0,0,0,3.27,3.71,29,29,0,0,0,3.9,3.14,25,25,0,0,0,4.4,2.4,24.74,24.74,0,0,0,4.82,1.5,22.33,22.33,0,0,0,5.12.44A16.59,16.59,0,0,0,534,96.79a19.74,19.74,0,0,0,5.26-3,17.77,17.77,0,0,0,4-4.49,12.14,12.14,0,0,0,1.8-5.65,9.83,9.83,0,0,0-.92-4.75,18,18,0,0,0-3-4.44,34.78,34.78,0,0,0-4.51-4.2c-1.73-1.37-3.59-2.74-5.58-4.08s-4-2.69-6.15-4-4.21-2.68-6.25-4-4-2.76-5.85-4.17a43.08,43.08,0,0,1-5-4.35,30.79,30.79,0,0,1-6-8.75A23.67,23.67,0,0,1,499.76,31a27,27,0,0,1,.44-4.65,33.26,33.26,0,0,1,1.34-5,37.15,37.15,0,0,1,2.28-5.12,32.25,32.25,0,0,1,3.25-4.87A30.88,30.88,0,0,1,511.33,7a27.46,27.46,0,0,1,5.27-3.47,28.8,28.8,0,0,1,6.33-2.32A31.7,31.7,0,0,1,530.35.41Z"/><path class="cls-1" d="M569,23.65,569.38,0c.65.14,1.3.29,1.93.48l1.93.52a18.59,18.59,0,0,0,1.94.41,12.61,12.61,0,0,0,2,.15h75.51a8.5,8.5,0,0,0,1.53-.15A16.21,16.21,0,0,0,655.84,1l1.7-.52c.56-.19,1.12-.34,1.67-.48L660,23.65h-1.94a26.14,26.14,0,0,0-1.24-6.08,19.55,19.55,0,0,0-2.52-5.05,12.57,12.57,0,0,0-3.63-3.47A8.56,8.56,0,0,0,646,7.76H625.52V89.05a11.79,11.79,0,0,0,.68,3.88,10.23,10.23,0,0,0,5.55,6,11.8,11.8,0,0,0,5,1h1.15v1.91H590.68V99.53h3.09a9.43,9.43,0,0,0,7-3,9.81,9.81,0,0,0,2-3.2,10.61,10.61,0,0,0,.7-3.86V7.76H582.58a6.22,6.22,0,0,0-2.32.44,7.55,7.55,0,0,0-2,1.23,11.86,11.86,0,0,0-1.77,1.83,18,18,0,0,0-1.53,2.27,21.29,21.29,0,0,0-1.26,2.53c-.38.89-.71,1.77-1,2.65s-.55,1.75-.78,2.59-.42,1.62-.58,2.35Z"/><path class="cls-1" d="M34.47,130.76H13.58a6.22,6.22,0,0,0-2.32.44,7.55,7.55,0,0,0-2,1.23,11.86,11.86,0,0,0-1.77,1.83,18,18,0,0,0-1.53,2.27,21.29,21.29,0,0,0-1.26,2.53c-.38.89-.71,1.77-1,2.65s-.55,1.75-.78,2.59-.42,1.62-.58,2.35H0L.38,123c.65.14,1.3.29,1.93.48l1.93.52a18.59,18.59,0,0,0,1.94.41,12.61,12.61,0,0,0,2,.15H1008.64a8.5,8.5,0,0,0,1.53-.15,16.21,16.21,0,0,0,1.67-.41l1.7-.52c.56-.19,1.12-.34,1.67-.48l.78,23.65h-1.94a26.14,26.14,0,0,0-1.24-6.08,19.55,19.55,0,0,0-2.52-5,12.57,12.57,0,0,0-3.63-3.47,8.56,8.56,0,0,0-4.62-1.29H34.47Z"/><path class="cls-1" d="M664.41,1.56h46.82l0,1.94h-1.54a13.3,13.3,0,0,0-4.15.65,10,10,0,0,0-3.45,1.92,9.33,9.33,0,0,0-2.37,3.17,10.1,10.1,0,0,0-.88,4.34V65.47a28.24,28.24,0,0,0,2,10.77,22.22,22.22,0,0,0,2.32,4.28,22.86,22.86,0,0,0,6.55,6.32A21.94,21.94,0,0,0,717.88,90a21.66,21.66,0,0,0,4.24.29,27.72,27.72,0,0,0,4.42-.51,26.75,26.75,0,0,0,4.32-1.26,24,24,0,0,0,4-2,21.78,21.78,0,0,0,3.64-2.82,22.81,22.81,0,0,0,3.1-3.64A22.53,22.53,0,0,0,744,75.49a28.4,28.4,0,0,0,1.53-5.36,33.05,33.05,0,0,0,.55-6.23V13.58a10.52,10.52,0,0,0-1-4.68,9.27,9.27,0,0,0-2.45-3.12,9.81,9.81,0,0,0-3.37-1.73,13.3,13.3,0,0,0-3.68-.55h-1.94V1.56h46.86V3.5H779a14.52,14.52,0,0,0-3.71.5,9.21,9.21,0,0,0-3.37,1.68A8.87,8.87,0,0,0,769.5,8.9a12.08,12.08,0,0,0-.93,5V89.46a11.66,11.66,0,0,0,.95,5,9.06,9.06,0,0,0,2.62,3.37,11,11,0,0,0,4,1.92,18.6,18.6,0,0,0,4.86.61v1.53H746.11v-19a41.58,41.58,0,0,1-6.69,9.25,36.38,36.38,0,0,1-8.16,6.4,33.26,33.26,0,0,1-9.16,3.57,35.36,35.36,0,0,1-9.68.85,53.16,53.16,0,0,1-6-.63,44.35,44.35,0,0,1-6.12-1.41,35.12,35.12,0,0,1-6-2.41,30.94,30.94,0,0,1-5.54-3.64A30.07,30.07,0,0,1,680.2,83.3,39.68,39.68,0,0,1,677.71,75a55.73,55.73,0,0,1-.88-10.28V15.11a13.94,13.94,0,0,0-1-5.57A10.06,10.06,0,0,0,673.36,6a9,9,0,0,0-3.47-1.9A13.81,13.81,0,0,0,666,3.5h-1.57Z"/><path class="cls-1" d="M786.46,1.56h71.63l.75,22.84H856.9a30.06,30.06,0,0,0-1.23-6.32,20.77,20.77,0,0,0-2.62-5.58,13.84,13.84,0,0,0-4.08-4A10.26,10.26,0,0,0,843.36,7H820.9V48.42H841a7.48,7.48,0,0,0,3.9-1.07,11,11,0,0,0,3.14-2.89,16.71,16.71,0,0,0,2.25-4.21,21.1,21.1,0,0,0,1.19-5h1.53V64.68h-1.94A11.7,11.7,0,0,0,850,60a11.52,11.52,0,0,0-2.51-3.4,10.68,10.68,0,0,0-7.2-2.81H820.9V86a29.51,29.51,0,0,0,.39,4.63,14,14,0,0,0,1.51,4.52,9,9,0,0,0,8.58,4.8h2.31v1.94H786.46V99.9h1.94a10.79,10.79,0,0,0,4.24-.81,9.82,9.82,0,0,0,3.3-2.27,10.22,10.22,0,0,0,2.14-3.43,12,12,0,0,0,.77-4.34V14.36a13.28,13.28,0,0,0-.51-3.54,11.39,11.39,0,0,0-1.57-3.39,9,9,0,0,0-2.65-2.55,7,7,0,0,0-3.78-1h-3.88Z"/><path class="cls-1" d="M866.29,1.56h71.62l.75,22.84h-1.94a30.68,30.68,0,0,0-1.22-6.32,21.08,21.08,0,0,0-2.62-5.58,13.75,13.75,0,0,0-4.09-4A10.26,10.26,0,0,0,923.18,7H900.72V48.42h20.15a7.47,7.47,0,0,0,3.89-1.07,11.17,11.17,0,0,0,3.15-2.89,16.71,16.71,0,0,0,2.25-4.21,21.6,21.6,0,0,0,1.19-5h1.53V64.68h-1.94A11.7,11.7,0,0,0,929.8,60a11.37,11.37,0,0,0-2.52-3.4,10.63,10.63,0,0,0-7.2-2.81H900.72V86a29.51,29.51,0,0,0,.39,4.63,14.28,14.28,0,0,0,1.52,4.52,8.94,8.94,0,0,0,8.57,4.8h2.32v1.94H866.29V99.9h1.94a10.78,10.78,0,0,0,4.23-.81,9.63,9.63,0,0,0,3.3-2.27,10.24,10.24,0,0,0,2.15-3.43,12,12,0,0,0,.76-4.34V14.36a13.28,13.28,0,0,0-.51-3.54,11.61,11.61,0,0,0-1.56-3.39,9,9,0,0,0-2.66-2.55,6.91,6.91,0,0,0-3.77-1h-3.88Z"/><path class="cls-1" d="M987.14.75a13.39,13.39,0,0,1,7.43,2.53,21.81,21.81,0,0,1,5.81,6.15,30,30,0,0,1,3.69,8.55,31.48,31.48,0,0,1,1,9.7A124.2,124.2,0,0,1,1003,46.54q-1.79,9.33-4.15,18.6t-4.95,18.51q-2.58,9.24-4.57,18.58h-4.74q-1.9-9.35-4.48-18.65T975.14,65q-2.35-9.31-4-18.63a120.12,120.12,0,0,1-1.92-18.65c0-1.33,0-2.74.14-4.24a43.16,43.16,0,0,1,.53-4.58,39.31,39.31,0,0,1,1-4.57,26.36,26.36,0,0,1,1.64-4.3A22,22,0,0,1,974.9,6.2a14.57,14.57,0,0,1,3.16-3,14.32,14.32,0,0,1,4-1.9A15.73,15.73,0,0,1,987.14.75Z"/></g></g></svg>