<svg xmlns="http://www.w3.org/2000/svg" viewBox="0 0 147 195.61"><defs><style>.cls-1{fill:#e0e0e0;}.cls-2{fill:#4c4c4b;}.cls-3{fill:#fff;}</style></defs><title>Asset 5</title><g id="Layer_2" data-name="Layer 2"><g id="CV"><rect class="cls-1" width="141.06" height="191.29" rx="10.61" ry="10.61"/><rect class="cls-2" x="5.94" y="4.32" width="141.06" height="191.29" rx="10.61" ry="10.61"/><path class="cls-3" d="M20.91,18.89l1.83.58a3.7,3.7,0,0,1-3.89,3,3.89,3.89,0,0,1-3.17-1.4,5,5,0,0,1-1.09-3.36,5.35,5.35,0,0,1,1.08-3.49A4,4,0,0,1,19,12.81a3.9,3.9,0,0,1,2.79,1,3.79,3.79,0,0,1,1,1.72L20.85,16a1.94,1.94,0,0,0-2-1.58c-1.56,0-2.33,1.06-2.33,3.17s.76,3.29,2.29,3.29C19.92,20.88,20.61,20.22,20.91,18.89Z"/><path class="cls-3" d="M18.85,22.67a4.11,4.11,0,0,1-3.3-1.46,5.27,5.27,0,0,1-1.13-3.48,5.5,5.5,0,0,1,1.12-3.6A4.21,4.21,0,0,1,19,12.64a4.12,4.12,0,0,1,2.91,1.06,4,4,0,0,1,1,1.8l.05.18-2.22.53,0-.18A1.78,1.78,0,0,0,20.05,15a1.87,1.87,0,0,0-1.17-.38c-1.45,0-2.16,1-2.16,3s.69,3.12,2.12,3.12c1,0,1.61-.61,1.9-1.86l0-.18,2.18.68-.05.17A3.87,3.87,0,0,1,18.85,22.67ZM19,13a3.87,3.87,0,0,0-3.16,1.36,5.21,5.21,0,0,0-1.05,3.38A4.89,4.89,0,0,0,15.82,21a3.72,3.72,0,0,0,3,1.34,3.5,3.5,0,0,0,3.68-2.73L21,19.11a2.21,2.21,0,0,1-2.19,1.95c-1.64,0-2.47-1.17-2.47-3.47s.84-3.34,2.51-3.34a2.11,2.11,0,0,1,1.38.46A2.08,2.08,0,0,1,21,15.79l1.52-.37A3.38,3.38,0,0,0,21.64,14,3.75,3.75,0,0,0,19,13Z"/><path class="cls-3" d="M26.76,22.33,23.41,13h2l2.37,6.92L30.12,13h2l-3.36,9.35Z"/><path class="cls-3" d="M28.89,22.5H26.63l-3.47-9.7h2.42l2.24,6.55L30,12.8h2.37Zm-2-.35h1.76l3.23-9H30.24l-2.41,7.29-2.5-7.29H23.66Z"/><path class="cls-3" d="M42.6,32H16.93a1.75,1.75,0,0,1,0-3.49H42.6a1.75,1.75,0,0,1,0,3.49Z"/><path class="cls-3" d="M96.37,40.58H17.11a1.75,1.75,0,1,1,0-3.49H96.37a1.75,1.75,0,1,1,0,3.49Z"/><path class="cls-3" d="M125.35,49.31H17.11a1.75,1.75,0,1,1,0-3.49H125.35a1.75,1.75,0,1,1,0,3.49Z"/><path class="cls-3" d="M125.35,91.21H17.11a1.75,1.75,0,1,1,0-3.49H125.35a1.75,1.75,0,1,1,0,3.49Z"/><path class="cls-3" d="M125.35,148.12H17.11a1.75,1.75,0,1,1,0-3.49H125.35a1.75,1.75,0,1,1,0,3.49Z"/><path class="cls-3" d="M42.6,157.64H17.11a1.75,1.75,0,1,1,0-3.49H42.6a1.75,1.75,0,0,1,0,3.49Z"/><path class="cls-3" d="M109.29,167.15H17.11a1.75,1.75,0,1,1,0-3.49h92.18a1.75,1.75,0,1,1,0,3.49Z"/><path class="cls-3" d="M76.47,176.67H17.11a1.75,1.75,0,1,1,0-3.5H76.47a1.75,1.75,0,0,1,0,3.5Z"/><path class="cls-3" d="M98.47,186.18H17.11a1.75,1.75,0,1,1,0-3.49H98.47a1.75,1.75,0,0,1,0,3.49Z"/><path class="cls-3" d="M68.09,101.68h-51a1.75,1.75,0,1,1,0-3.49h51a1.75,1.75,0,0,1,0,3.49Z"/><path class="cls-3" d="M100.56,112.16H17.11a1.75,1.75,0,1,1,0-3.49h83.45a1.75,1.75,0,1,1,0,3.49Z"/><rect class="cls-3" x="17.11" y="54.89" width="28.98" height="28.98" rx="14.49" ry="14.49"/><rect class="cls-3" x="13.97" y="119.49" width="17.81" height="17.81" rx="8.9" ry="8.9"/><rect class="cls-3" x="37.36" y="119.49" width="17.81" height="17.81" rx="8.9" ry="8.9"/><rect class="cls-3" x="60.76" y="119.49" width="17.81" height="17.81" rx="8.9" ry="8.9"/><rect class="cls-3" x="84.15" y="119.49" width="17.81" height="17.81" rx="8.9" ry="8.9"/><rect class="cls-3" x="107.54" y="119.49" width="17.81" height="17.81" rx="8.9" ry="8.9"/><rect class="cls-3" x="56.74" y="54.89" width="28.98" height="28.98" rx="14.49" ry="14.49"/><rect class="cls-3" x="96.37" y="54.89" width="28.98" height="28.98" rx="14.49" ry="14.49"/><rect class="cls-3" x="103" y="11.25" width="28.98" height="28.98" rx="14.49" ry="14.49"/></g></g></svg>