<?xml version="1.0" encoding="utf-8"?>
<!-- Generator: Adobe Illustrator 22.0.1, SVG Export Plug-In . SVG Version: 6.00 Build 0)  -->
<svg version="1.1" id="Layer_1" xmlns="http://www.w3.org/2000/svg" xmlns:xlink="http://www.w3.org/1999/xlink" x="0px" y="0px"
	 viewBox="0 0 316.2 410.2" style="enable-background:new 0 0 316.2 410.2;" xml:space="preserve">
<style type="text/css">
	.st0{fill:#E0E0E0;}
	.st1{fill:#FF8B00;}
	.st2{fill:#FFFFFF;}
	.st3{fill:#05A8E0;}
	.st4{fill:#00B25D;}
	.st5{fill:#86328C;}
</style>
<title>Asset 3</title>
<g>
	<g>
		<path class="st0" d="M10.6,0h119.8c5.9,0,10.6,4.8,10.6,10.6v170.1c0,5.9-4.8,10.6-10.6,10.6H10.6c-5.9,0-10.6-4.8-10.6-10.6V10.6
			C0,4.8,4.8,0,10.6,0z"/>
		<path class="st1" d="M16.5,4.3h119.8c5.9,0,10.6,4.8,10.6,10.6V185c0,5.9-4.8,10.6-10.6,10.6H16.5c-5.9,0-10.6-4.8-10.6-10.6V14.9
			C5.9,9.1,10.7,4.3,16.5,4.3z"/>
		<path class="st2" d="M20.9,18.9l1.8,0.6c-0.4,1.8-2,3.1-3.9,3c-1.2,0.1-2.4-0.5-3.2-1.4c-0.8-1-1.1-2.1-1.1-3.4
			c-0.1-1.3,0.3-2.5,1.1-3.5s2.1-1.5,3.3-1.4c1,0,2,0.3,2.8,1c0.5,0.5,0.8,1.1,1,1.7L20.9,16c-0.2-1-1-1.6-2-1.6
			c-1.6,0-2.3,1.1-2.3,3.2s0.8,3.3,2.3,3.3C19.9,20.9,20.6,20.2,20.9,18.9z"/>
		<path class="st2" d="M18.9,22.7c-1.3,0-2.5-0.5-3.3-1.5s-1.2-2.2-1.1-3.5c-0.1-1.3,0.3-2.6,1.1-3.6c0.9-1,2.1-1.6,3.5-1.5
			c1.1,0,2.1,0.3,2.9,1.1c0.5,0.5,0.8,1.1,1,1.8v0.2l-2.2,0.5V16c-0.1-0.4-0.3-0.8-0.7-1c-0.3-0.3-0.7-0.4-1.2-0.4
			c-1.5,0-2.2,1-2.2,3s0.7,3.1,2.1,3.1c1,0,1.6-0.6,1.9-1.9v-0.2l2.2,0.7v0.2C22.5,21.4,20.8,22.8,18.9,22.7z M19,13
			c-1.2-0.1-2.4,0.4-3.2,1.4c-0.7,1-1.1,2.2-1.1,3.4c-0.1,1.2,0.3,2.3,1,3.3c0.7,0.9,1.8,1.4,3,1.3c1.7,0.1,3.3-1,3.7-2.7L21,19.1
			c-0.1,1.1-1.1,1.9-2.2,2c-1.6,0-2.5-1.2-2.5-3.5s0.8-3.3,2.5-3.3c0.5,0,1,0.1,1.4,0.5c0.4,0.3,0.6,0.6,0.8,1.1l1.5-0.4
			c-0.2-0.5-0.5-1-0.9-1.4C20.9,13.3,20,13,19,13z"/>
		<path class="st2" d="M26.8,22.3L23.4,13h2l2.4,6.9l2.3-6.9h2l-3.4,9.4L26.8,22.3z"/>
		<path class="st2" d="M28.9,22.5h-2.3l-3.5-9.7h2.4l2.2,6.6l2.2-6.6h2.4L28.9,22.5z M26.9,22.1h1.8l3.2-9h-1.6l-2.4,7.3l-2.5-7.3
			h-1.7L26.9,22.1z"/>
		<path class="st2" d="M42.6,32H16.9c-1-0.1-1.7-0.9-1.6-1.9c0.1-0.9,0.8-1.5,1.6-1.6h25.7c1,0.1,1.7,0.9,1.6,1.9
			C44.1,31.2,43.5,31.9,42.6,32z"/>
		<path class="st2" d="M96.4,40.6H17.1c-1,0.1-1.8-0.6-1.9-1.6s0.6-1.8,1.6-1.9c0.1,0,0.2,0,0.3,0h79.3c1-0.1,1.8,0.6,1.9,1.6
			s-0.6,1.8-1.6,1.9C96.5,40.6,96.5,40.6,96.4,40.6z"/>
		<path class="st2" d="M125.3,49.3H17.1c-1,0.1-1.8-0.6-1.9-1.6s0.6-1.8,1.6-1.9c0.1,0,0.2,0,0.3,0h108.2c1-0.1,1.8,0.6,1.9,1.6
			s-0.6,1.8-1.6,1.9C125.5,49.3,125.4,49.3,125.3,49.3z"/>
		<path class="st2" d="M125.3,91.2H17.1c-1,0.1-1.8-0.6-1.9-1.6s0.6-1.8,1.6-1.9c0.1,0,0.2,0,0.3,0h108.2c1-0.1,1.8,0.6,1.9,1.6
			s-0.6,1.8-1.6,1.9C125.5,91.2,125.4,91.2,125.3,91.2z"/>
		<path class="st2" d="M125.3,148.1H17.1c-1,0.1-1.8-0.6-1.9-1.6c-0.1-1,0.6-1.8,1.6-1.9c0.1,0,0.2,0,0.3,0h108.2
			c1-0.1,1.8,0.6,1.9,1.6s-0.6,1.8-1.6,1.9C125.5,148.1,125.4,148.1,125.3,148.1z"/>
		<path class="st2" d="M42.6,157.6H17.1c-1,0.1-1.8-0.6-1.9-1.6c-0.1-1,0.6-1.8,1.6-1.9c0.1,0,0.2,0,0.3,0h25.5
			c1,0.1,1.7,0.9,1.6,1.9C44.1,156.9,43.5,157.6,42.6,157.6z"/>
		<path class="st2" d="M109.3,167.1H17.1c-1,0.1-1.8-0.6-1.9-1.6c-0.1-1,0.6-1.8,1.6-1.9c0.1,0,0.2,0,0.3,0h92.2
			c1-0.1,1.8,0.6,1.9,1.6s-0.6,1.8-1.6,1.9C109.5,167.2,109.4,167.2,109.3,167.1z"/>
		<path class="st2" d="M76.5,176.7H17.1c-1,0-1.8-0.8-1.8-1.8s0.8-1.8,1.8-1.8h59.4c1,0,1.8,0.8,1.8,1.8S77.4,176.7,76.5,176.7z"/>
		<path class="st2" d="M98.5,186.2H17.1c-1,0.1-1.8-0.6-1.9-1.6c-0.1-1,0.6-1.8,1.6-1.9c0.1,0,0.2,0,0.3,0h81.4
			c1,0.1,1.7,0.9,1.6,1.9C100,185.4,99.3,186.1,98.5,186.2z"/>
		<path class="st2" d="M68.1,101.7h-51c-1,0.1-1.8-0.6-1.9-1.6s0.6-1.8,1.6-1.9c0.1,0,0.2,0,0.3,0h51c1,0.1,1.7,0.9,1.6,1.9
			C69.6,100.9,69,101.6,68.1,101.7z"/>
		<path class="st2" d="M100.6,112.2H17.1c-1,0.1-1.8-0.6-1.9-1.6s0.6-1.8,1.6-1.9c0.1,0,0.2,0,0.3,0h83.4c1-0.1,1.8,0.6,1.9,1.6
			s-0.6,1.8-1.6,1.9C100.7,112.2,100.6,112.2,100.6,112.2z"/>
		<path class="st2" d="M31.6,54.9L31.6,54.9c8,0,14.5,6.5,14.5,14.5l0,0c0,8-6.5,14.5-14.5,14.5l0,0c-8,0-14.5-6.5-14.5-14.5l0,0
			C17.1,61.4,23.6,54.9,31.6,54.9z"/>
		<path class="st2" d="M22.9,119.5L22.9,119.5c4.9,0,8.9,4,8.9,8.9l0,0c0,4.9-4,8.9-8.9,8.9l0,0c-4.9,0-8.9-4-8.9-8.9l0,0
			C14,123.5,18,119.5,22.9,119.5z"/>
		<path class="st2" d="M46.3,119.5L46.3,119.5c4.9,0,8.9,4,8.9,8.9l0,0c0,4.9-4,8.9-8.9,8.9l0,0c-4.9,0-8.9-4-8.9-8.9l0,0
			C37.4,123.5,41.3,119.5,46.3,119.5z"/>
		<path class="st2" d="M69.7,119.5L69.7,119.5c4.9,0,8.9,4,8.9,8.9l0,0c0,4.9-4,8.9-8.9,8.9l0,0c-4.9,0-8.9-4-8.9-8.9l0,0
			C60.8,123.5,64.7,119.5,69.7,119.5z"/>
		<path class="st2" d="M93.1,119.5L93.1,119.5c4.9,0,8.9,4,8.9,8.9l0,0c0,4.9-4,8.9-8.9,8.9l0,0c-4.9,0-8.9-4-8.9-8.9l0,0
			C84.2,123.5,88.1,119.5,93.1,119.5z"/>
		<path class="st2" d="M116.4,119.5L116.4,119.5c4.9,0,8.9,4,8.9,8.9l0,0c0,4.9-4,8.9-8.9,8.9l0,0c-4.9,0-8.9-4-8.9-8.9l0,0
			C107.5,123.5,111.5,119.5,116.4,119.5z"/>
		<path class="st2" d="M71.2,54.9L71.2,54.9c8,0,14.5,6.5,14.5,14.5l0,0c0,8-6.5,14.5-14.5,14.5l0,0c-8,0-14.5-6.5-14.5-14.5l0,0
			C56.7,61.4,63.2,54.9,71.2,54.9z"/>
		<path class="st2" d="M110.9,54.9L110.9,54.9c8,0,14.5,6.5,14.5,14.5l0,0c0,8-6.5,14.5-14.5,14.5l0,0c-8,0-14.5-6.5-14.5-14.5l0,0
			C96.4,61.4,102.9,54.9,110.9,54.9z"/>
		<path class="st2" d="M117.5,11.3L117.5,11.3c8,0,14.5,6.5,14.5,14.5l0,0c0,8-6.5,14.5-14.5,14.5l0,0c-8,0-14.5-6.5-14.5-14.5l0,0
			C103,17.7,109.5,11.3,117.5,11.3z"/>
	</g>
	<path class="st0" d="M179.6,0h119.8c5.9,0,10.6,4.8,10.6,10.6v170.1c0,5.9-4.8,10.6-10.6,10.6H179.6c-5.9,0-10.6-4.8-10.6-10.6
		V10.6C169,4.8,173.8,0,179.6,0z"/>
	<path class="st3" d="M185.6,4.3h119.8c5.9,0,10.6,4.8,10.6,10.6V185c0,5.9-4.8,10.6-10.6,10.6H185.6c-5.9,0-10.6-4.8-10.6-10.6
		V14.9C174.9,9.1,179.7,4.3,185.6,4.3z"/>
	<path class="st2" d="M189.9,18.9l1.8,0.6c-0.4,1.8-2,3.1-3.9,3c-1.2,0.1-2.4-0.5-3.2-1.4c-0.8-1-1.1-2.1-1.1-3.4
		c-0.1-1.3,0.3-2.5,1.1-3.5s2.1-1.5,3.3-1.4c1,0,2,0.3,2.8,1c0.5,0.5,0.8,1.1,1,1.7l-1.9,0.5c-0.2-1-1-1.6-2-1.6
		c-1.6,0-2.3,1.1-2.3,3.2s0.8,3.3,2.3,3.3C188.9,20.9,189.6,20.2,189.9,18.9z"/>
	<path class="st2" d="M187.9,22.7c-1.3,0-2.5-0.5-3.3-1.5s-1.2-2.2-1.1-3.5c-0.1-1.3,0.3-2.6,1.1-3.6c0.9-1,2.1-1.6,3.5-1.5
		c1.1,0,2.1,0.3,2.9,1.1c0.5,0.5,0.8,1.1,1,1.8v0.2l-2.2,0.5V16c-0.1-0.4-0.3-0.8-0.7-1c-0.3-0.3-0.7-0.4-1.2-0.4
		c-1.5,0-2.2,1-2.2,3s0.7,3.1,2.1,3.1c1,0,1.6-0.6,1.9-1.9v-0.2l2.2,0.7l-0.1,0.2C191.5,21.4,189.8,22.8,187.9,22.7z M188,13
		c-1.2-0.1-2.4,0.4-3.2,1.4c-0.7,1-1.1,2.2-1.1,3.4c-0.1,1.2,0.3,2.3,1,3.3c0.7,0.9,1.8,1.4,3,1.3c1.7,0.1,3.3-1,3.7-2.7l-1.5-0.5
		c-0.1,1.1-1.1,1.9-2.2,2c-1.6,0-2.5-1.2-2.5-3.5s0.8-3.3,2.5-3.3c0.5,0,1,0.1,1.4,0.5c0.4,0.3,0.6,0.6,0.8,1.1l1.5-0.4
		c-0.2-0.5-0.5-1-0.9-1.4C189.9,13.3,189,13,188,13z"/>
	<path class="st2" d="M195.8,22.3l-3.3-9.3h2l2.4,6.9l2.3-6.9h2l-3.4,9.4L195.8,22.3z"/>
	<path class="st2" d="M197.9,22.5h-2.3l-3.5-9.7h2.4l2.2,6.6l2.2-6.6h2.4L197.9,22.5z M195.9,22.1h1.8l3.2-9h-1.6l-2.4,7.3l-2.5-7.3
		h-1.7L195.9,22.1z"/>
	<path class="st2" d="M211.6,32h-25.7c-1-0.1-1.7-0.9-1.6-1.9c0.1-0.9,0.8-1.5,1.6-1.6h25.7c1,0.1,1.7,0.9,1.6,1.9
		C213.1,31.2,212.5,31.9,211.6,32z"/>
	<path class="st2" d="M265.4,40.6h-79.3c-1,0.1-1.8-0.6-1.9-1.6s0.6-1.8,1.6-1.9c0.1,0,0.2,0,0.3,0h79.3c1-0.1,1.8,0.6,1.9,1.6
		s-0.6,1.8-1.6,1.9C265.5,40.6,265.5,40.6,265.4,40.6z"/>
	<path class="st2" d="M294.4,49.3H186.1c-1,0.1-1.8-0.6-1.9-1.6s0.6-1.8,1.6-1.9c0.1,0,0.2,0,0.3,0h108.2c1-0.1,1.8,0.6,1.9,1.6
		s-0.6,1.8-1.6,1.9C294.5,49.3,294.4,49.3,294.4,49.3z"/>
	<path class="st2" d="M294.4,91.2H186.1c-1,0.1-1.8-0.6-1.9-1.6c-0.1-1,0.6-1.8,1.6-1.9c0.1,0,0.2,0,0.3,0h108.2
		c1-0.1,1.8,0.6,1.9,1.6s-0.6,1.8-1.6,1.9C294.5,91.2,294.4,91.2,294.4,91.2z"/>
	<path class="st2" d="M294.4,148.1H186.1c-1,0.1-1.8-0.6-1.9-1.6c-0.1-1,0.6-1.8,1.6-1.9c0.1,0,0.2,0,0.3,0h108.2
		c1-0.1,1.8,0.6,1.9,1.6s-0.6,1.8-1.6,1.9C294.5,148.1,294.4,148.1,294.4,148.1z"/>
	<path class="st2" d="M211.6,157.6h-25.5c-1,0.1-1.8-0.6-1.9-1.6c-0.1-1,0.6-1.8,1.6-1.9c0.1,0,0.2,0,0.3,0h25.5
		c1,0.1,1.7,0.9,1.6,1.9C213.1,156.9,212.5,157.6,211.6,157.6z"/>
	<path class="st2" d="M278.3,167.1h-92.2c-1,0.1-1.8-0.6-1.9-1.6c-0.1-1,0.6-1.8,1.6-1.9c0.1,0,0.2,0,0.3,0h92.2
		c1-0.1,1.8,0.6,1.9,1.6s-0.6,1.8-1.6,1.9C278.5,167.2,278.4,167.2,278.3,167.1z"/>
	<path class="st2" d="M245.5,176.7h-59.4c-1,0-1.8-0.8-1.8-1.8s0.8-1.8,1.8-1.8h59.4c1,0,1.8,0.8,1.8,1.8S246.4,176.7,245.5,176.7z"
		/>
	<path class="st2" d="M267.5,186.2h-81.4c-1,0.1-1.8-0.6-1.9-1.6c-0.1-1,0.6-1.8,1.6-1.9c0.1,0,0.2,0,0.3,0h81.4
		c1,0.1,1.7,0.9,1.6,1.9C269,185.4,268.3,186.1,267.5,186.2z"/>
	<path class="st2" d="M237.1,101.7h-51c-1,0.1-1.8-0.6-1.9-1.6c-0.1-1,0.6-1.8,1.6-1.9c0.1,0,0.2,0,0.3,0h51c1,0.1,1.7,0.9,1.6,1.9
		C238.6,100.9,238,101.6,237.1,101.7z"/>
	<path class="st2" d="M269.6,112.2h-83.4c-1,0.1-1.8-0.6-1.9-1.6c-0.1-1,0.6-1.8,1.6-1.9c0.1,0,0.2,0,0.3,0h83.4
		c1-0.1,1.8,0.6,1.9,1.6s-0.6,1.8-1.6,1.9C269.7,112.2,269.6,112.2,269.6,112.2z"/>
	<path class="st2" d="M200.6,54.9L200.6,54.9c8,0,14.5,6.5,14.5,14.5l0,0c0,8-6.5,14.5-14.5,14.5l0,0c-8,0-14.5-6.5-14.5-14.5l0,0
		C186.1,61.4,192.6,54.9,200.6,54.9z"/>
	<path class="st2" d="M191.9,119.5L191.9,119.5c4.9,0,8.9,4,8.9,8.9l0,0c0,4.9-4,8.9-8.9,8.9l0,0c-4.9,0-8.9-4-8.9-8.9l0,0
		C183,123.5,187,119.5,191.9,119.5z"/>
	<path class="st2" d="M215.3,119.5L215.3,119.5c4.9,0,8.9,4,8.9,8.9l0,0c0,4.9-4,8.9-8.9,8.9l0,0c-4.9,0-8.9-4-8.9-8.9l0,0
		C206.4,123.5,210.3,119.5,215.3,119.5z"/>
	<path class="st2" d="M238.7,119.5L238.7,119.5c4.9,0,8.9,4,8.9,8.9l0,0c0,4.9-4,8.9-8.9,8.9l0,0c-4.9,0-8.9-4-8.9-8.9l0,0
		C229.8,123.5,233.7,119.5,238.7,119.5z"/>
	<path class="st2" d="M262,119.5L262,119.5c4.9,0,8.9,4,8.9,8.9l0,0c0,4.9-4,8.9-8.9,8.9l0,0c-4.9,0-8.9-4-8.9-8.9l0,0
		C253.1,123.5,257.1,119.5,262,119.5z"/>
	<path class="st2" d="M285.4,119.5L285.4,119.5c4.9,0,8.9,4,8.9,8.9l0,0c0,4.9-4,8.9-8.9,8.9l0,0c-4.9,0-8.9-4-8.9-8.9l0,0
		C276.5,123.5,280.5,119.5,285.4,119.5z"/>
	<path class="st2" d="M240.2,54.9L240.2,54.9c8,0,14.5,6.5,14.5,14.5l0,0c0,8-6.5,14.5-14.5,14.5l0,0c-8,0-14.5-6.5-14.5-14.5l0,0
		C225.7,61.4,232.2,54.9,240.2,54.9z"/>
	<path class="st2" d="M279.9,54.9L279.9,54.9c8,0,14.5,6.5,14.5,14.5l0,0c0,8-6.5,14.5-14.5,14.5l0,0c-8,0-14.5-6.5-14.5-14.5l0,0
		C265.4,61.4,271.9,54.9,279.9,54.9z"/>
	<path class="st2" d="M286.5,11.3L286.5,11.3c8,0,14.5,6.5,14.5,14.5l0,0c0,8-6.5,14.5-14.5,14.5l0,0c-8,0-14.5-6.5-14.5-14.5l0,0
		C272,17.7,278.5,11.3,286.5,11.3z"/>
	<path class="st0" d="M10.6,214.4h119.8c5.9,0,10.6,4.8,10.6,10.6v170.1c0,5.9-4.8,10.6-10.6,10.6H10.6c-5.9,0-10.6-4.8-10.6-10.6
		V225C0,219.1,4.8,214.4,10.6,214.4z"/>
	<path class="st4" d="M16.5,218.7h119.8c5.9,0,10.6,4.8,10.6,10.6v170.1c0,5.9-4.8,10.6-10.6,10.6H16.5c-5.9,0-10.6-4.8-10.6-10.6
		V229.3C5.9,223.5,10.7,218.7,16.5,218.7z"/>
	<path class="st2" d="M20.9,233.3l1.8,0.6c-0.4,1.8-2,3.1-3.9,3c-1.2,0.1-2.4-0.5-3.2-1.4c-0.8-1-1.1-2.1-1.1-3.4
		c-0.1-1.3,0.3-2.5,1.1-3.5s2.1-1.5,3.3-1.4c1,0,2,0.3,2.8,1c0.5,0.5,0.8,1.1,1,1.7l-1.9,0.5c-0.2-1-1-1.6-2-1.6
		c-1.6,0-2.3,1.1-2.3,3.2s0.8,3.3,2.3,3.3C19.9,235.3,20.6,234.6,20.9,233.3z"/>
	<path class="st2" d="M18.9,237.1c-1.3,0-2.5-0.5-3.3-1.5s-1.2-2.2-1.1-3.5c-0.1-1.3,0.3-2.6,1.1-3.6c0.9-1,2.1-1.6,3.5-1.5
		c1.1,0,2.1,0.3,2.9,1.1c0.5,0.5,0.8,1.1,1,1.8v0.2l-2.2,0.5v-0.2c-0.1-0.4-0.3-0.8-0.7-1c-0.3-0.3-0.7-0.4-1.2-0.4
		c-1.5,0-2.2,1-2.2,3s0.7,3.1,2.1,3.1c1,0,1.6-0.6,1.9-1.9V233l2.2,0.7v0.2C22.5,235.8,20.8,237.2,18.9,237.1z M19,227.4
		c-1.2-0.1-2.4,0.4-3.2,1.4c-0.7,1-1.1,2.2-1.1,3.4c-0.1,1.2,0.3,2.3,1,3.3c0.7,0.9,1.8,1.4,3,1.3c1.7,0.1,3.3-1,3.7-2.7l-1.5-0.5
		c-0.1,1.1-1.1,1.9-2.2,1.9c-1.6,0-2.5-1.2-2.5-3.5s0.8-3.3,2.5-3.3c0.5,0,1,0.1,1.4,0.5c0.4,0.3,0.6,0.6,0.8,1.1l1.5-0.4
		c-0.2-0.5-0.5-1-0.9-1.4C20.9,227.7,20,227.4,19,227.4z"/>
	<path class="st2" d="M26.8,236.7l-3.4-9.3h2l2.4,6.9l2.3-6.9h2l-3.4,9.4L26.8,236.7z"/>
	<path class="st2" d="M28.9,236.9h-2.3l-3.5-9.7h2.4l2.2,6.6l2.2-6.6h2.4L28.9,236.9z M26.9,236.5h1.8l3.2-9h-1.6l-2.4,7.3l-2.5-7.3
		h-1.7L26.9,236.5z"/>
	<path class="st2" d="M42.6,246.4H16.9c-1-0.1-1.7-0.9-1.6-1.9c0.1-0.9,0.8-1.5,1.6-1.6h25.7c1,0.1,1.7,0.9,1.6,1.9
		C44.1,245.6,43.5,246.3,42.6,246.4z"/>
	<path class="st2" d="M96.4,255H17.1c-1,0.1-1.8-0.6-1.9-1.6c-0.1-1,0.6-1.8,1.6-1.9c0.1,0,0.2,0,0.3,0h79.3c1-0.1,1.8,0.6,1.9,1.6
		s-0.6,1.8-1.6,1.9C96.5,255,96.5,255,96.4,255z"/>
	<path class="st2" d="M125.3,263.7H17.1c-1,0.1-1.8-0.6-1.9-1.6s0.6-1.8,1.6-1.9c0.1,0,0.2,0,0.3,0h108.2c1-0.1,1.8,0.6,1.9,1.6
		s-0.6,1.8-1.6,1.9C125.5,263.7,125.4,263.7,125.3,263.7z"/>
	<path class="st2" d="M125.3,305.6H17.1c-1,0.1-1.8-0.6-1.9-1.6s0.6-1.8,1.6-1.9c0.1,0,0.2,0,0.3,0h108.2c1-0.1,1.8,0.6,1.9,1.6
		s-0.6,1.8-1.6,1.9C125.5,305.6,125.4,305.6,125.3,305.6z"/>
	<path class="st2" d="M125.3,362.5H17.1c-1,0.1-1.8-0.6-1.9-1.6c-0.1-1,0.6-1.8,1.6-1.9c0.1,0,0.2,0,0.3,0h108.2
		c1-0.1,1.8,0.6,1.9,1.6s-0.6,1.8-1.6,1.9C125.5,362.5,125.4,362.5,125.3,362.5z"/>
	<path class="st2" d="M42.6,372H17.1c-1,0.1-1.8-0.6-1.9-1.6c-0.1-1,0.6-1.8,1.6-1.9c0.1,0,0.2,0,0.3,0h25.5c1,0.1,1.7,0.9,1.6,1.9
		C44.1,371.3,43.5,372,42.6,372z"/>
	<path class="st2" d="M109.3,381.5H17.1c-1,0.1-1.8-0.6-1.9-1.6c-0.1-1,0.6-1.8,1.6-1.9c0.1,0,0.2,0,0.3,0h92.2
		c1-0.1,1.8,0.6,1.9,1.6s-0.6,1.8-1.6,1.9C109.5,381.6,109.4,381.6,109.3,381.5z"/>
	<path class="st2" d="M76.5,391.1H17.1c-1,0-1.8-0.8-1.8-1.8s0.8-1.8,1.8-1.8h59.4c1,0,1.8,0.8,1.8,1.8S77.4,391.1,76.5,391.1z"/>
	<path class="st2" d="M98.5,400.6H17.1c-1,0.1-1.8-0.6-1.9-1.6c-0.1-1,0.6-1.8,1.6-1.9c0.1,0,0.2,0,0.3,0h81.4
		c1,0.1,1.7,0.9,1.6,1.9C100,399.8,99.3,400.5,98.5,400.6z"/>
	<path class="st2" d="M68.1,316.1h-51c-1,0.1-1.8-0.6-1.9-1.6s0.6-1.8,1.6-1.9c0.1,0,0.2,0,0.3,0h51c1,0.1,1.7,0.9,1.6,1.9
		C69.6,315.3,69,316,68.1,316.1z"/>
	<path class="st2" d="M100.6,326.6H17.1c-1,0.1-1.8-0.6-1.9-1.6c-0.1-1,0.6-1.8,1.6-1.9c0.1,0,0.2,0,0.3,0h83.4
		c1-0.1,1.8,0.6,1.9,1.6s-0.6,1.8-1.6,1.9C100.7,326.6,100.6,326.6,100.6,326.6z"/>
	<path class="st2" d="M31.6,269.3L31.6,269.3c8,0,14.5,6.5,14.5,14.5l0,0c0,8-6.5,14.5-14.5,14.5l0,0c-8,0-14.5-6.5-14.5-14.5l0,0
		C17.1,275.8,23.6,269.3,31.6,269.3z"/>
	<path class="st2" d="M22.9,333.9L22.9,333.9c4.9,0,8.9,4,8.9,8.9l0,0c0,4.9-4,8.9-8.9,8.9l0,0c-4.9,0-8.9-4-8.9-8.9l0,0
		C14,337.9,18,333.9,22.9,333.9z"/>
	<path class="st2" d="M46.3,333.9L46.3,333.9c4.9,0,8.9,4,8.9,8.9l0,0c0,4.9-4,8.9-8.9,8.9l0,0c-4.9,0-8.9-4-8.9-8.9l0,0
		C37.4,337.9,41.3,333.9,46.3,333.9z"/>
	<path class="st2" d="M69.7,333.9L69.7,333.9c4.9,0,8.9,4,8.9,8.9l0,0c0,4.9-4,8.9-8.9,8.9l0,0c-4.9,0-8.9-4-8.9-8.9l0,0
		C60.8,337.9,64.7,333.9,69.7,333.9z"/>
	<path class="st2" d="M93.1,333.9L93.1,333.9c4.9,0,8.9,4,8.9,8.9l0,0c0,4.9-4,8.9-8.9,8.9l0,0c-4.9,0-8.9-4-8.9-8.9l0,0
		C84.2,337.9,88.1,333.9,93.1,333.9z"/>
	<path class="st2" d="M116.4,333.9L116.4,333.9c4.9,0,8.9,4,8.9,8.9l0,0c0,4.9-4,8.9-8.9,8.9l0,0c-4.9,0-8.9-4-8.9-8.9l0,0
		C107.5,337.9,111.5,333.9,116.4,333.9z"/>
	<path class="st2" d="M71.2,269.3L71.2,269.3c8,0,14.5,6.5,14.5,14.5l0,0c0,8-6.5,14.5-14.5,14.5l0,0c-8,0-14.5-6.5-14.5-14.5l0,0
		C56.7,275.8,63.2,269.3,71.2,269.3z"/>
	<path class="st2" d="M110.9,269.3L110.9,269.3c8,0,14.5,6.5,14.5,14.5l0,0c0,8-6.5,14.5-14.5,14.5l0,0c-8,0-14.5-6.5-14.5-14.5l0,0
		C96.4,275.8,102.9,269.3,110.9,269.3z"/>
	<path class="st2" d="M117.5,225.6L117.5,225.6c8,0,14.5,6.5,14.5,14.5l0,0c0,8-6.5,14.5-14.5,14.5l0,0c-8,0-14.5-6.5-14.5-14.5l0,0
		C103,232.1,109.5,225.6,117.5,225.6z"/>
	<path class="st0" d="M179.6,214.4h119.8c5.9,0,10.6,4.8,10.6,10.6v170.1c0,5.9-4.8,10.6-10.6,10.6H179.6c-5.9,0-10.6-4.8-10.6-10.6
		V225C169,219.1,173.8,214.4,179.6,214.4z"/>
	<path class="st5" d="M185.6,218.7h119.8c5.9,0,10.6,4.8,10.6,10.6v170.1c0,5.9-4.8,10.6-10.6,10.6H185.6c-5.9,0-10.6-4.8-10.6-10.6
		V229.3C174.9,223.5,179.7,218.7,185.6,218.7z"/>
	<path class="st2" d="M189.9,233.3l1.8,0.6c-0.4,1.8-2,3.1-3.9,3c-1.2,0.1-2.4-0.5-3.2-1.4c-0.8-1-1.1-2.1-1.1-3.4
		c-0.1-1.3,0.3-2.5,1.1-3.5s2.1-1.5,3.3-1.4c1,0,2,0.3,2.8,1c0.5,0.5,0.8,1.1,1,1.7l-1.9,0.5c-0.2-1-1-1.6-2-1.6
		c-1.6,0-2.3,1.1-2.3,3.2s0.8,3.3,2.3,3.3C188.9,235.3,189.6,234.6,189.9,233.3z"/>
	<path class="st2" d="M187.9,237.1c-1.3,0-2.5-0.5-3.3-1.5s-1.2-2.2-1.1-3.5c-0.1-1.3,0.3-2.6,1.1-3.6c0.9-1,2.1-1.6,3.5-1.5
		c1.1,0,2.1,0.3,2.9,1.1c0.5,0.5,0.8,1.1,1,1.8v0.2l-2.2,0.5v-0.2c-0.1-0.4-0.3-0.8-0.7-1c-0.3-0.3-0.7-0.4-1.2-0.4
		c-1.5,0-2.2,1-2.2,3s0.7,3.1,2.1,3.1c1,0,1.6-0.6,1.9-1.9V233l2.2,0.7l-0.1,0.2C191.5,235.8,189.8,237.2,187.9,237.1z M188,227.4
		c-1.2-0.1-2.4,0.4-3.2,1.4c-0.7,1-1.1,2.2-1.1,3.4c-0.1,1.2,0.3,2.3,1,3.3c0.7,0.9,1.8,1.4,3,1.3c1.7,0.1,3.3-1,3.7-2.7l-1.5-0.5
		c-0.1,1.1-1.1,1.9-2.2,1.9c-1.6,0-2.5-1.2-2.5-3.5s0.8-3.3,2.5-3.3c0.5,0,1,0.1,1.4,0.5c0.4,0.3,0.6,0.6,0.8,1.1l1.5-0.4
		c-0.2-0.5-0.5-1-0.9-1.4C189.9,227.7,189,227.4,188,227.4z"/>
	<path class="st2" d="M195.8,236.7l-3.3-9.3h2l2.4,6.9l2.3-6.9h2l-3.4,9.4L195.8,236.7z"/>
	<path class="st2" d="M197.9,236.9h-2.3l-3.5-9.7h2.4l2.2,6.6l2.2-6.6h2.4L197.9,236.9z M195.9,236.5h1.8l3.2-9h-1.6l-2.4,7.3
		l-2.5-7.3h-1.7L195.9,236.5z"/>
	<path class="st2" d="M211.6,246.4h-25.7c-1-0.1-1.7-0.9-1.6-1.9c0.1-0.9,0.8-1.5,1.6-1.6h25.7c1,0.1,1.7,0.9,1.6,1.9
		C213.1,245.6,212.5,246.3,211.6,246.4z"/>
	<path class="st2" d="M265.4,255h-79.3c-1,0.1-1.8-0.6-1.9-1.6c-0.1-1,0.6-1.8,1.6-1.9c0.1,0,0.2,0,0.3,0h79.3
		c1-0.1,1.8,0.6,1.9,1.6s-0.6,1.8-1.6,1.9C265.5,255,265.5,255,265.4,255z"/>
	<path class="st2" d="M294.4,263.7H186.1c-1,0.1-1.8-0.6-1.9-1.6s0.6-1.8,1.6-1.9c0.1,0,0.2,0,0.3,0h108.2c1-0.1,1.8,0.6,1.9,1.6
		s-0.6,1.8-1.6,1.9C294.5,263.7,294.4,263.7,294.4,263.7z"/>
	<path class="st2" d="M294.4,305.6H186.1c-1,0.1-1.8-0.6-1.9-1.6c-0.1-1,0.6-1.8,1.6-1.9c0.1,0,0.2,0,0.3,0h108.2
		c1-0.1,1.8,0.6,1.9,1.6s-0.6,1.8-1.6,1.9C294.5,305.6,294.4,305.6,294.4,305.6z"/>
	<path class="st2" d="M294.4,362.5H186.1c-1,0.1-1.8-0.6-1.9-1.6c-0.1-1,0.6-1.8,1.6-1.9c0.1,0,0.2,0,0.3,0h108.2
		c1-0.1,1.8,0.6,1.9,1.6s-0.6,1.8-1.6,1.9C294.5,362.5,294.4,362.5,294.4,362.5z"/>
	<path class="st2" d="M211.6,372h-25.5c-1,0.1-1.8-0.6-1.9-1.6c-0.1-1,0.6-1.8,1.6-1.9c0.1,0,0.2,0,0.3,0h25.5
		c1,0.1,1.7,0.9,1.6,1.9C213.1,371.3,212.5,372,211.6,372z"/>
	<path class="st2" d="M278.3,381.5h-92.2c-1,0.1-1.8-0.6-1.9-1.6c-0.1-1,0.6-1.8,1.6-1.9c0.1,0,0.2,0,0.3,0h92.2
		c1-0.1,1.8,0.6,1.9,1.6s-0.6,1.8-1.6,1.9C278.5,381.6,278.4,381.6,278.3,381.5z"/>
	<path class="st2" d="M245.5,391.1h-59.4c-1,0-1.8-0.8-1.8-1.8s0.8-1.8,1.8-1.8h59.4c1,0,1.8,0.8,1.8,1.8S246.4,391.1,245.5,391.1z"
		/>
	<path class="st2" d="M267.5,400.6h-81.4c-1,0.1-1.8-0.6-1.9-1.6c-0.1-1,0.6-1.8,1.6-1.9c0.1,0,0.2,0,0.3,0h81.4
		c1,0.1,1.7,0.9,1.6,1.9C269,399.8,268.3,400.5,267.5,400.6z"/>
	<path class="st2" d="M237.1,316.1h-51c-1,0.1-1.8-0.6-1.9-1.6c-0.1-1,0.6-1.8,1.6-1.9c0.1,0,0.2,0,0.3,0h51c1,0.1,1.7,0.9,1.6,1.9
		C238.6,315.3,238,316,237.1,316.1z"/>
	<path class="st2" d="M269.6,326.6h-83.4c-1,0.1-1.8-0.6-1.9-1.6c-0.1-1,0.6-1.8,1.6-1.9c0.1,0,0.2,0,0.3,0h83.4
		c1-0.1,1.8,0.6,1.9,1.6s-0.6,1.8-1.6,1.9C269.7,326.6,269.6,326.6,269.6,326.6z"/>
	<path class="st2" d="M200.6,269.3L200.6,269.3c8,0,14.5,6.5,14.5,14.5l0,0c0,8-6.5,14.5-14.5,14.5l0,0c-8,0-14.5-6.5-14.5-14.5l0,0
		C186.1,275.8,192.6,269.3,200.6,269.3z"/>
	<path class="st2" d="M191.9,333.9L191.9,333.9c4.9,0,8.9,4,8.9,8.9l0,0c0,4.9-4,8.9-8.9,8.9l0,0c-4.9,0-8.9-4-8.9-8.9l0,0
		C183,337.9,187,333.9,191.9,333.9z"/>
	<path class="st2" d="M215.3,333.9L215.3,333.9c4.9,0,8.9,4,8.9,8.9l0,0c0,4.9-4,8.9-8.9,8.9l0,0c-4.9,0-8.9-4-8.9-8.9l0,0
		C206.4,337.9,210.3,333.9,215.3,333.9z"/>
	<path class="st2" d="M238.7,333.9L238.7,333.9c4.9,0,8.9,4,8.9,8.9l0,0c0,4.9-4,8.9-8.9,8.9l0,0c-4.9,0-8.9-4-8.9-8.9l0,0
		C229.8,337.9,233.7,333.9,238.7,333.9z"/>
	<path class="st2" d="M262,333.9L262,333.9c4.9,0,8.9,4,8.9,8.9l0,0c0,4.9-4,8.9-8.9,8.9l0,0c-4.9,0-8.9-4-8.9-8.9l0,0
		C253.1,337.9,257.1,333.9,262,333.9z"/>
	<path class="st2" d="M285.4,333.9L285.4,333.9c4.9,0,8.9,4,8.9,8.9l0,0c0,4.9-4,8.9-8.9,8.9l0,0c-4.9,0-8.9-4-8.9-8.9l0,0
		C276.5,337.9,280.5,333.9,285.4,333.9z"/>
	<path class="st2" d="M240.2,269.3L240.2,269.3c8,0,14.5,6.5,14.5,14.5l0,0c0,8-6.5,14.5-14.5,14.5l0,0c-8,0-14.5-6.5-14.5-14.5l0,0
		C225.7,275.8,232.2,269.3,240.2,269.3z"/>
	<path class="st2" d="M279.9,269.3L279.9,269.3c8,0,14.5,6.5,14.5,14.5l0,0c0,8-6.5,14.5-14.5,14.5l0,0c-8,0-14.5-6.5-14.5-14.5l0,0
		C265.4,275.8,271.9,269.3,279.9,269.3z"/>
	<path class="st2" d="M286.5,225.6L286.5,225.6c8,0,14.5,6.5,14.5,14.5l0,0c0,8-6.5,14.5-14.5,14.5l0,0c-8,0-14.5-6.5-14.5-14.5l0,0
		C272,232.1,278.5,225.6,286.5,225.6z"/>
	<path class="st2" d="M76.5,379.7H17.1c-1,0-1.8-0.8-1.8-1.8s0.8-1.8,1.8-1.8h59.4c1,0,1.8,0.8,1.8,1.8S77.4,379.7,76.5,379.7z"/>
	<path class="st2" d="M98.5,389.2H17.1c-1,0.1-1.8-0.6-1.9-1.6c-0.1-1,0.6-1.8,1.6-1.9c0.1,0,0.2,0,0.3,0h81.4
		c1,0.1,1.7,0.9,1.6,1.9C100,388.4,99.3,389.1,98.5,389.2z"/>
</g>
</svg>
