<?xml version="1.0" encoding="utf-8"?>
<!-- Generator: Adobe Illustrator 22.0.1, SVG Export Plug-In . SVG Version: 6.00 Build 0)  -->
<svg version="1.1" id="CV" xmlns="http://www.w3.org/2000/svg" xmlns:xlink="http://www.w3.org/1999/xlink" x="0px" y="0px"
	 viewBox="0 0 421.4 561.4" style="enable-background:new 0 0 421.4 561.4;" xml:space="preserve">
<style type="text/css">
	.st0{fill:#E0E0E0;}
	.st1{fill:#FF8B00;}
	.st2{fill:#FFFFFF;stroke:#FFFFFF;stroke-miterlimit:10;}
	.st3{fill:none;stroke:#FFFFFF;stroke-width:10;stroke-linecap:round;stroke-miterlimit:10;}
	.st4{fill:#FFFFFF;}
</style>
<g>
	<path class="st0" d="M373.6,547.6H30.4C13.6,547.6,0,534,0,517.3V30.2C0,13.4,13.6-0.2,30.4-0.2h343.2c16.8,0,30.4,13.6,30.4,30.4
		v487.1C404,534,390.4,547.6,373.6,547.6z"/>
</g>
<g>
	<path class="st1" d="M390.6,560H47.4C30.6,560,17,546.4,17,529.6V42.5c0-16.8,13.6-30.4,30.4-30.4h343.2
		c16.8,0,30.4,13.6,30.4,30.4v487.1C421,546.4,407.4,560,390.6,560z"/>
</g>
<g>
	<path class="st2" d="M59.9,53.9l5.3,1.7c-1.6,5.8-5.3,8.6-11.1,8.6c-3.8,0-6.9-1.3-9.1-4c-2.1-2.5-3.1-5.7-3.1-9.6
		c0-4.1,1-7.5,3.1-10c2.2-2.7,5.4-4.1,9.4-4.1c3.3,0,5.9,1,8,2.9c1.2,1.2,2.1,2.8,2.7,4.9l-5.4,1.3c-0.3-1.4-1-2.5-2-3.3
		c-1-0.8-2.2-1.2-3.7-1.2c-4.4,0-6.7,3-6.7,9.1c0,6.3,2.2,9.4,6.6,9.4C57,59.6,59,57.7,59.9,53.9z"/>
	<path class="st2" d="M76.6,63.7L67,36.9h5.8l6.8,19.8l6.6-19.8H92l-9.6,26.8H76.6z"/>
</g>
<line class="st3" x1="48.5" y1="86.5" x2="122" y2="86.5"/>
<line class="st3" x1="49" y1="111" x2="276" y2="111"/>
<line class="st3" x1="49" y1="136" x2="359" y2="136"/>
<line class="st3" x1="49" y1="256" x2="359" y2="256"/>
<line class="st3" x1="49" y1="419" x2="359" y2="419"/>
<line class="st3" x1="49" y1="446.3" x2="122" y2="446.3"/>
<line class="st3" x1="49" y1="473.5" x2="313" y2="473.5"/>
<line class="st3" x1="49" y1="500.8" x2="219" y2="500.8"/>
<line class="st3" x1="49" y1="528" x2="282" y2="528"/>
<line class="st3" x1="49" y1="286" x2="195" y2="286"/>
<line class="st3" x1="49" y1="316" x2="288" y2="316"/>
<path class="st4" d="M115,240H66c-9.4,0-17-7.6-17-17v-49c0-9.4,7.6-17,17-17h49c9.4,0,17,7.6,17,17v49C132,232.4,124.4,240,115,240
	z"/>
<path class="st4" d="M65.5,393L65.5,393C51.4,393,40,381.6,40,367.5v0c0-14.1,11.4-25.5,25.5-25.5h0c14.1,0,25.5,11.4,25.5,25.5v0
	C91,381.6,79.6,393,65.5,393z"/>
<path class="st4" d="M132.5,393L132.5,393c-14.1,0-25.5-11.4-25.5-25.5v0c0-14.1,11.4-25.5,25.5-25.5h0c14.1,0,25.5,11.4,25.5,25.5
	v0C158,381.6,146.6,393,132.5,393z"/>
<path class="st4" d="M199.5,393L199.5,393c-14.1,0-25.5-11.4-25.5-25.5v0c0-14.1,11.4-25.5,25.5-25.5h0c14.1,0,25.5,11.4,25.5,25.5
	v0C225,381.6,213.6,393,199.5,393z"/>
<path class="st4" d="M266.5,393L266.5,393c-14.1,0-25.5-11.4-25.5-25.5v0c0-14.1,11.4-25.5,25.5-25.5h0c14.1,0,25.5,11.4,25.5,25.5
	v0C292,381.6,280.6,393,266.5,393z"/>
<path class="st4" d="M333.5,393L333.5,393c-14.1,0-25.5-11.4-25.5-25.5v0c0-14.1,11.4-25.5,25.5-25.5h0c14.1,0,25.5,11.4,25.5,25.5
	v0C359,381.6,347.6,393,333.5,393z"/>
<path class="st4" d="M228.5,240h-49c-9.4,0-17-7.6-17-17v-49c0-9.4,7.6-17,17-17h49c9.4,0,17,7.6,17,17v49
	C245.5,232.4,237.9,240,228.5,240z"/>
<path class="st4" d="M342,240h-49c-9.4,0-17-7.6-17-17v-49c0-9.4,7.6-17,17-17h49c9.4,0,17,7.6,17,17v49
	C359,232.4,351.4,240,342,240z"/>
<path class="st4" d="M336.5,115L336.5,115c-22.9,0-41.5-18.6-41.5-41.5v0c0-22.9,18.6-41.5,41.5-41.5h0c22.9,0,41.5,18.6,41.5,41.5
	v0C378,96.4,359.4,115,336.5,115z"/>
</svg>
