<?xml version="1.0" encoding="utf-8"?>
<!-- Generator: Adobe Illustrator 22.0.1, SVG Export Plug-In . SVG Version: 6.00 Build 0)  -->
<svg version="1.1" id="Layer_1" xmlns="http://www.w3.org/2000/svg" xmlns:xlink="http://www.w3.org/1999/xlink" x="0px" y="0px"
	 viewBox="0 0 25.3 26" style="enable-background:new 0 0 25.3 26;" xml:space="preserve">
<style type="text/css">
	.st0{fill:#C6BEBD;}
	.st1{fill:#FFFFFF;}
	.st2{fill:#FF8B00;}
	.st3{fill:#29ABE2;}
</style>
<g>
	<path class="st0" d="M-975.2-67.9L-975.2-67.9c-4.7-2.7-10.6,0.7-10.6,6.1v0c0,5.4,5.9,8.8,10.6,6.1v0
		C-970.5-58.4-970.5-65.2-975.2-67.9z"/>
	<path class="st1" d="M-970.7-64l-9.6-5.6c-1.7-1-3.8,0.2-3.8,2.2v11.1c0,1.9,2.1,3.1,3.8,2.2l9.6-5.6C-969-60.6-969-63-970.7-64z"
		/>
	<polygon class="st2" points="-961.4,-61.8 -982.6,-74 -982.6,-49.6 	"/>
</g>
<path class="st0" d="M10.8,7.1L10.8,7.1C6.1,4.4,0.3,7.8,0.3,13.2v0c0,5.4,5.9,8.8,10.6,6.1l0,0C15.5,16.6,15.5,9.8,10.8,7.1z"/>
<path class="st3" d="M15.3,11L5.7,5.5C4,4.5,1.9,5.7,1.9,7.7v11.1c0,1.9,2.1,3.1,3.8,2.2l9.6-5.6C17,14.4,17,12,15.3,11z"/>
<polygon class="st2" points="24.6,13.2 3.4,1 3.4,25.4 "/>
</svg>
