<?xml version="1.0" encoding="utf-8"?>
<!-- Generator: Adobe Illustrator 22.0.1, SVG Export Plug-In . SVG Version: 6.00 Build 0)  -->
<svg version="1.1" id="Layer_1" xmlns="http://www.w3.org/2000/svg" xmlns:xlink="http://www.w3.org/1999/xlink" x="0px" y="0px"
	 viewBox="0 0 1016 146.6" style="enable-background:new 0 0 1016 146.6;" xml:space="preserve">
<style type="text/css">
	.st0{fill:#FFFFFF;}
</style>
<title>Asset 10</title>
<path class="st0" d="M7.3,1.6h55c1.7,0,3.4,0.2,5.1,0.4c1.8,0.3,3.6,0.7,5.3,1.2c1.8,0.6,3.5,1.2,5.2,2.1c1.7,0.8,3.3,1.8,4.9,2.9
	c1.5,1.1,2.9,2.3,4.2,3.6c1.3,1.3,2.3,2.8,3.2,4.4c0.9,1.7,1.6,3.4,2,5.2c0.5,2,0.6,4,0.5,6c-0.1,2.4-0.5,4.8-1.2,7.2
	c-0.7,2.3-1.8,4.5-3.3,6.4c-1.6,2.1-3.5,4-5.8,5.4c-2.7,1.8-5.7,3.2-8.8,4.2c2,1.5,3.9,3.2,5.6,5.1c1.7,1.8,3.2,3.8,4.6,5.8
	c1.4,2,2.8,4.1,4,6.3c1.2,2.2,2.4,4.3,3.6,6.5c0.6,1.2,1.3,2.4,2,3.7s1.5,2.7,2.4,4.1s1.7,2.8,2.6,4.2s1.8,2.8,2.8,4
	s1.9,2.5,2.9,3.6c0.9,1,1.9,2,3,2.9c0.9,0.8,1.9,1.4,3,1.9c0.9,0.4,1.9,0.7,2.9,0.7v2.3h-32c-1.4-2-2.6-4.1-3.7-6.2
	c-1.2-2.3-2.4-4.8-3.6-7.3c-1.2-2.5-2.4-5.1-3.6-7.6c-1.2-2.6-2.5-5.2-3.8-7.7s-2.7-4.8-4.1-7c-1.3-2-2.8-3.9-4.5-5.7
	c-1.5-1.5-3.1-2.8-5-3.8c-1.8-0.9-3.8-1.4-5.8-1.4h-5v35.2c0,1.2,0.3,2.5,0.8,3.6c0.5,1.2,1.2,2.2,2,3.1c0.9,0.9,1.9,1.6,3,2.1
	c1.2,0.5,2.5,0.8,3.8,0.8h2.3v1.9H7.3v-2.3h1.9c1.3,0,2.5-0.2,3.7-0.5c1.2-0.3,2.4-0.9,3.4-1.7c1-0.8,1.9-1.9,2.4-3.1
	c0.7-1.5,1-3.2,0.9-4.8V14c0-1.6-0.3-3.1-0.9-4.6c-0.5-1.3-1.3-2.4-2.3-3.3c-0.9-0.9-2-1.6-3.2-2c-1.2-0.4-2.4-0.6-3.6-0.6H7.3V1.6z
	 M41.8,7v42.2h7c1.9,0,3.8-0.2,5.7-0.5c1.6-0.3,3.2-0.8,4.6-1.4c1.3-0.6,2.6-1.3,3.7-2.2c1.1-0.8,2-1.8,2.8-2.8c0.8-1,1.5-2.1,2-3.3
	c0.6-1.1,1-2.3,1.3-3.5c0.3-1.2,0.6-2.5,0.8-3.8c0.2-1.3,0.2-2.5,0.2-3.8c0-1.3-0.1-2.5-0.2-3.7c-0.2-1.2-0.4-2.5-0.8-3.7
	c-0.4-1.2-0.9-2.4-1.4-3.5c-1.2-2.3-2.9-4.4-5-5.9c-1.1-0.9-2.3-1.6-3.6-2.1c-1.4-0.6-2.9-1.1-4.5-1.4C52.7,7.2,50.9,7,49.2,7H41.8z
	"/>
<path class="st0" d="M176.8,0.4L207,79.8c0.4,1.1,0.8,2.2,1.2,3.2s0.9,2.2,1.3,3.3s1,2.2,1.5,3.2c0.5,1,1.1,2,1.8,3
	c0.7,0.9,1.4,1.8,2.3,2.6c1.8,1.7,3.9,3,6.2,3.8c1.4,0.5,2.8,0.8,4.2,1v1.9h-47.2v-2c1.3-0.1,2.7-0.3,4-0.6c1-0.3,1.9-0.6,2.8-1.2
	c0.7-0.4,1.3-0.9,1.8-1.6c0.4-0.6,0.7-1.2,0.9-1.9c0.2-0.7,0.2-1.4,0.2-2.1c0-0.7-0.1-1.4-0.3-2.2c-0.1-0.7-0.3-1.4-0.6-2.1
	c-0.2-0.7-0.4-1.3-0.7-2l-8.5-22h-30.2L140,87.1c-0.4,1.3-0.6,2.5-0.7,3.9c-0.1,1.3,0.2,2.6,0.8,3.8c0.7,1.3,1.7,2.4,3,3.2
	c1.8,1.1,3.8,1.8,5.9,2v1.9h-30.2v-2c2.1-0.3,4-1.1,5.7-2.3c1.7-1.2,3.2-2.6,4.5-4.2c1.3-1.6,2.4-3.4,3.3-5.3
	c0.9-1.8,1.7-3.7,2.4-5.6l29-82.1L176.8,0.4z M150.6,57.6l24.7,0.1l-12.8-34.1L150.6,57.6z"/>
<path class="st0" d="M326.6,1.6L261.2,96h41.4c2.4,0,4.9-0.2,7.3-0.7c2.3-0.5,4.5-1.4,6.4-2.8c2.2-1.6,4.1-3.6,5.6-5.9
	c2-3.1,3.6-6.5,4.8-10.1h1.9l-3.9,25.2h-94.1L295.6,7h-38.7c-4.8,0-9.4,1.8-12.9,5.2c-1.9,1.9-3.4,4-4.5,6.4c-1.3,2.8-2.1,5.9-2.4,9
	h-2.3l2.3-26L326.6,1.6z"/>
<path class="st0" d="M393.1,0.4l30.2,79.4c0.4,1.1,0.8,2.1,1.2,3.2c0.4,1.1,0.8,2.2,1.3,3.3s1,2.2,1.5,3.2c0.5,1,1.1,2,1.8,3
	c0.7,0.9,1.4,1.8,2.3,2.6c1.8,1.7,3.9,3,6.3,3.8c1.4,0.5,2.8,0.8,4.2,1v1.9h-47.2v-2c1.3-0.1,2.7-0.3,4-0.6c1-0.2,1.9-0.6,2.8-1.2
	c0.7-0.4,1.3-0.9,1.8-1.6c0.4-0.6,0.7-1.2,0.9-1.9c0.2-0.7,0.3-1.4,0.2-2.1c0-0.7-0.1-1.4-0.3-2.2c-0.1-0.7-0.3-1.4-0.6-2.1
	c-0.2-0.7-0.5-1.3-0.7-2l-8.5-22h-30.2l-7.8,22.8c-0.4,1.2-0.7,2.5-0.7,3.9c-0.1,1.3,0.2,2.6,0.8,3.8c0.7,1.3,1.7,2.4,3,3.2
	c1.8,1.1,3.8,1.8,5.9,2v1.9H335v-2c2.1-0.3,4-1.1,5.7-2.3c1.7-1.2,3.2-2.6,4.5-4.2c1.3-1.6,2.4-3.4,3.3-5.3c0.9-1.8,1.7-3.7,2.4-5.6
	L380,0.4H393.1z M366.9,57.6l24.7,0.1l-12.8-34.1L366.9,57.6z"/>
<path class="st0" d="M530.3,0.4c1.5,0,3,0.1,4.5,0.4c1.5,0.3,3,0.6,4.4,1l4.4,1c1.5,0.3,3,0.6,4.5,0.7c1,0.1,2-0.1,2.8-0.6
	c0.8-0.7,1.5-1.5,1.9-2.5h2.3v25.9h-2.7c-1.1-3.5-2.6-6.9-4.4-10c-1.4-2.3-3.1-4.3-5.2-6c-1.8-1.4-3.9-2.4-6.1-3
	c-2.3-0.6-4.7-0.9-7.1-1.1c-0.9-0.1-1.7,0-2.6,0.1c-1.9,0.2-3.7,0.8-5.3,1.7c-0.9,0.4-1.7,1-2.4,1.6c-0.8,0.6-1.5,1.3-2.1,2
	c-0.6,0.7-1.2,1.6-1.6,2.4c-0.4,0.9-0.7,1.8-0.9,2.7c-0.2,1-0.2,2-0.2,3c0.2,1.9,0.8,3.8,1.7,5.5c0.9,1.8,2.1,3.4,3.5,4.8
	c1.5,1.6,3.1,3,4.8,4.3c1.8,1.3,3.8,2.7,5.8,4s4.1,2.6,6.2,3.9c2.1,1.3,4.2,2.6,6.2,3.9c2,1.3,3.9,2.7,5.7,4.2
	c1.7,1.4,3.3,2.9,4.8,4.6c1.2,1.4,2.4,2.9,3.4,4.3c1,1.4,1.9,2.9,2.7,4.5c0.8,1.6,1.4,3.3,1.8,5.1c0.4,1.9,0.7,3.9,0.7,5.9
	c0,1.8-0.2,3.6-0.5,5.3c-1.2,5.4-3.9,10.2-7.9,14c-1.4,1.3-3,2.5-4.6,3.6c-1.8,1.1-3.6,2-5.6,2.8c-2.1,0.8-4.3,1.4-6.5,1.8
	c-2.4,0.4-4.9,0.7-7.4,0.7c-1,0-2.1,0-3.1-0.1c-1.1-0.1-2.2-0.3-3.3-0.4s-2.2-0.4-3.3-0.6s-2.2-0.4-3.3-0.7l-3.1-0.7
	c-1-0.2-2-0.4-2.9-0.6s-1.7-0.3-2.5-0.4c-0.7-0.1-1.3-0.2-2-0.2c-1,0-1.9,0.3-2.7,0.9c-0.9,0.6-1.6,1.5-1.9,2.6h-2.4L499,74h3.1
	c0,1.5,0.3,3,0.7,4.4c0.4,1.5,1,2.9,1.6,4.3c0.7,1.4,1.5,2.8,2.5,4.1c1,1.3,2.1,2.6,3.3,3.7c1.2,1.2,2.5,2.2,3.9,3.1
	c1.4,0.9,2.9,1.7,4.4,2.4c1.6,0.7,3.2,1.2,4.8,1.5c1.7,0.3,3.4,0.5,5.1,0.4c1.9-0.1,3.8-0.5,5.6-1.2c1.9-0.7,3.7-1.7,5.3-3
	c1.6-1.3,2.9-2.8,4-4.5c1.1-1.7,1.7-3.6,1.8-5.7c0.1-1.6-0.2-3.3-0.9-4.8c-0.8-1.6-1.8-3.1-3-4.4c-1.4-1.5-2.9-2.9-4.5-4.2
	c-1.7-1.4-3.6-2.7-5.6-4.1s-4-2.7-6.2-4s-4.2-2.7-6.3-4s-4-2.8-5.8-4.2c-1.8-1.3-3.4-2.8-5-4.3c-2.5-2.5-4.5-5.5-6-8.8
	c-1.4-3.1-2.1-6.5-2-9.9c0-1.6,0.2-3.1,0.4-4.6c0.3-1.7,0.8-3.4,1.3-5c0.6-1.8,1.4-3.5,2.3-5.1c0.9-1.7,2-3.3,3.3-4.9
	c1.3-1.6,2.7-3.1,4.3-4.4c1.6-1.4,3.4-2.5,5.3-3.5c2-1,4.1-1.8,6.3-2.3C525.4,0.7,527.9,0.4,530.3,0.4z"/>
<path class="st0" d="M569,23.6L569.4,0c0.7,0.1,1.3,0.3,1.9,0.5l1.9,0.5c0.6,0.2,1.3,0.3,1.9,0.4c0.7,0.1,1.3,0.2,2,0.1h75.5
	c0.5,0,1-0.1,1.5-0.1c0.5-0.1,1.1-0.2,1.6-0.4l1.7-0.5c0.6-0.2,1.1-0.3,1.7-0.5l0.8,23.6h-1.9c-0.2-2.1-0.6-4.1-1.2-6.1
	c-0.6-1.8-1.4-3.5-2.5-5.1c-1-1.4-2.2-2.6-3.6-3.5c-1.4-0.9-3-1.3-4.7-1.3h-20.5v81.3c0,1.3,0.2,2.6,0.7,3.9c0.9,2.7,2.9,4.9,5.5,6
	c1.6,0.7,3.3,1,5,1h1.2v1.9h-47.2v-2.3h3.1c2.7,0,5.2-1.1,7-3c0.9-0.9,1.5-2,2-3.2c0.5-1.2,0.7-2.5,0.7-3.9V7.8h-20.9
	c-0.8,0-1.6,0.1-2.3,0.4c-0.7,0.3-1.4,0.7-2,1.2c-0.7,0.5-1.2,1.2-1.8,1.8c-0.6,0.7-1.1,1.5-1.5,2.3c-0.5,0.8-0.9,1.7-1.3,2.5
	c-0.4,0.9-0.7,1.8-1,2.6s-0.5,1.8-0.8,2.6s-0.4,1.6-0.6,2.4L569,23.6z"/>
<path class="st0" d="M34.5,130.8H13.6c-0.8,0-1.6,0.1-2.3,0.4c-0.7,0.3-1.4,0.7-2,1.2c-0.7,0.5-1.2,1.2-1.8,1.8
	c-0.6,0.7-1.1,1.5-1.5,2.3c-0.5,0.8-0.9,1.7-1.3,2.5c-0.4,0.9-0.7,1.8-1,2.6s-0.5,1.8-0.8,2.6s-0.4,1.6-0.6,2.4H0L0.4,123
	c0.6,0.1,1.3,0.3,1.9,0.5l1.9,0.5c0.6,0.2,1.3,0.3,1.9,0.4c0.7,0.1,1.3,0.2,2,0.2h1000.5c0.5,0,1-0.1,1.5-0.2
	c0.6-0.1,1.1-0.2,1.7-0.4l1.7-0.5c0.6-0.2,1.1-0.3,1.7-0.5l0.8,23.6h-1.9c-0.2-2.1-0.6-4.1-1.2-6.1c-0.6-1.8-1.4-3.5-2.5-5
	c-1-1.4-2.2-2.6-3.6-3.5c-1.4-0.9-3-1.3-4.6-1.3L34.5,130.8L34.5,130.8z"/>
<path class="st0" d="M664.4,1.6h46.8v1.9h-1.5c-1.4,0-2.8,0.2-4.2,0.7c-1.3,0.4-2.4,1.1-3.5,1.9c-1,0.9-1.8,2-2.4,3.2
	c-0.6,1.4-0.9,2.8-0.9,4.3v51.9c0,3.7,0.6,7.3,2,10.8c0.6,1.5,1.4,2.9,2.3,4.3c1.7,2.5,4,4.7,6.5,6.3c2.5,1.6,5.3,2.7,8.2,3.2
	c1.4,0.2,2.8,0.3,4.2,0.3c1.5-0.1,3-0.2,4.4-0.5c1.5-0.3,2.9-0.7,4.3-1.3c1.4-0.5,2.7-1.2,4-2c1.3-0.8,2.5-1.8,3.6-2.8
	c1.2-1.1,2.2-2.3,3.1-3.6c1-1.4,1.8-3,2.4-4.6c0.7-1.7,1.2-3.5,1.5-5.4c0.4-2.1,0.6-4.1,0.5-6.2V13.6c0-1.6-0.3-3.2-1-4.7
	c-0.6-1.2-1.4-2.3-2.5-3.1c-1-0.8-2.1-1.4-3.4-1.7c-1.2-0.4-2.4-0.5-3.7-0.5h-1.9V1.6h46.9v1.9H779c-1.3,0-2.5,0.2-3.7,0.5
	c-1.2,0.3-2.4,0.9-3.4,1.7c-1,0.9-1.9,2-2.4,3.2c-0.7,1.6-1,3.3-0.9,5v75.6c-0.1,1.7,0.3,3.4,1,5c0.6,1.3,1.5,2.5,2.6,3.4
	c1.2,0.9,2.6,1.6,4,1.9c1.6,0.4,3.2,0.6,4.9,0.6v1.5h-34.9v-19c-1.8,3.4-4,6.5-6.7,9.3c-2.4,2.5-5.1,4.7-8.2,6.4
	c-2.9,1.6-5.9,2.8-9.2,3.6c-3.2,0.7-6.4,1-9.7,0.8c-2-0.1-4-0.3-6-0.6c-2.1-0.3-4.1-0.8-6.1-1.4c-2.1-0.6-4.1-1.4-6-2.4
	c-2-1-3.8-2.2-5.5-3.6c-3.7-3.1-6.7-7.1-8.6-11.6c-1.1-2.7-2-5.5-2.5-8.3c-0.6-3.4-0.9-6.8-0.9-10.3V15.1c0.1-1.9-0.3-3.8-1-5.6
	c-0.6-1.3-1.4-2.6-2.5-3.5c-1-0.9-2.2-1.5-3.5-1.9c-1.3-0.4-2.6-0.6-3.9-0.6h-1.6L664.4,1.6z"/>
<path class="st0" d="M786.5,1.6h71.6l0.8,22.8h-1.9c-0.2-2.1-0.6-4.3-1.2-6.3c-0.6-2-1.5-3.9-2.6-5.6c-1.1-1.6-2.5-3-4.1-4
	c-1.7-1-3.6-1.6-5.6-1.5h-22.5v41.4H841c1.4,0,2.7-0.4,3.9-1.1c1.2-0.7,2.3-1.7,3.1-2.9c0.9-1.3,1.7-2.7,2.3-4.2
	c0.6-1.6,1-3.3,1.2-5h1.5v29.4h-1.9c0-1.6-0.4-3.2-1.1-4.7c-0.6-1.3-1.5-2.4-2.5-3.4c-2-1.8-4.5-2.8-7.2-2.8h-19.4V86
	c0,1.6,0.1,3.1,0.4,4.6c0.2,1.6,0.8,3.1,1.5,4.5c1.7,3.2,5,5,8.6,4.8h2.3v1.9h-47.2v-2h1.9c1.5,0,2.9-0.3,4.2-0.8
	c1.2-0.5,2.4-1.3,3.3-2.3c0.9-1,1.7-2.2,2.1-3.4c0.5-1.4,0.8-2.9,0.8-4.3V14.4c0-1.2-0.2-2.4-0.5-3.5c-0.3-1.2-0.9-2.4-1.6-3.4
	c-0.7-1-1.6-1.9-2.7-2.6c-1.1-0.7-2.5-1-3.8-1h-3.9L786.5,1.6z"/>
<path class="st0" d="M866.3,1.6h71.6l0.8,22.8h-1.9c-0.2-2.1-0.6-4.3-1.2-6.3c-0.6-2-1.5-3.9-2.6-5.6c-1.1-1.6-2.5-3-4.1-4
	c-1.7-1-3.6-1.6-5.6-1.5h-22.5v41.4h20.2c1.4,0,2.7-0.4,3.9-1.1c1.2-0.8,2.3-1.7,3.2-2.9c0.9-1.3,1.7-2.7,2.3-4.2
	c0.6-1.6,1-3.3,1.2-5h1.5v29.4h-1.9c-0.1-1.6-0.4-3.2-1.1-4.7c-0.6-1.3-1.5-2.4-2.5-3.4c-2-1.8-4.5-2.8-7.2-2.8h-19.4V86
	c0,1.6,0.1,3.1,0.4,4.6c0.2,1.6,0.8,3.1,1.5,4.5c1.6,3.2,5,5.1,8.6,4.8h2.3v1.9h-47.2v-2h1.9c1.5,0,2.9-0.3,4.2-0.8
	c1.2-0.5,2.4-1.3,3.3-2.3c0.9-1,1.7-2.2,2.2-3.4c0.5-1.4,0.8-2.9,0.8-4.3V14.4c0-1.2-0.2-2.4-0.5-3.5c-0.3-1.2-0.9-2.4-1.6-3.4
	c-0.7-1-1.6-1.9-2.7-2.6c-1.1-0.7-2.4-1-3.8-1h-3.9V1.6z"/>
<path class="st0" d="M991.5,0.6c1.8,0.1,3.5,0.6,5,1.7c1.6,1.1,2.9,2.5,3.9,4.1c1.1,1.8,2,3.7,2.5,5.7c0.6,2.1,0.8,4.3,0.7,6.5
	c-0.1,4.2-0.6,8.5-1.4,12.7c-0.8,4.2-1.7,8.3-2.8,12.5s-2.2,8.3-3.3,12.4c-1.2,4.1-2.2,8.3-3.1,12.5h-3.2c-0.9-4.2-1.9-8.4-3-12.5
	c-1.2-4.2-2.3-8.3-3.3-12.5c-1.1-4.2-1.9-8.3-2.7-12.5c-0.8-4.1-1.2-8.3-1.3-12.5c0-0.9,0-1.8,0.1-2.8c0.1-1,0.2-2.1,0.4-3.1
	c0.2-1,0.4-2.1,0.7-3.1c0.3-1,0.7-2,1.1-2.9c0.4-0.9,1-1.8,1.6-2.6c0.6-0.8,1.3-1.5,2.1-2c0.8-0.6,1.7-1,2.7-1.3
	C989.2,0.7,990.4,0.6,991.5,0.6z"/>
<circle class="st0" cx="991.4" cy="92.4" r="10.6"/>
</svg>
