<?xml version="1.0" encoding="utf-8"?>
<!-- Generator: Adobe Illustrator 22.0.1, SVG Export Plug-In . SVG Version: 6.00 Build 0)  -->
<svg version="1.1" id="Layer_1" xmlns="http://www.w3.org/2000/svg" xmlns:xlink="http://www.w3.org/1999/xlink" x="0px" y="0px"
	 viewBox="0 0 989 679" style="enable-background:new 0 0 989 679;" xml:space="preserve">
<style type="text/css">
	.st0{fill:#FFffff;}
	.st1{enable-background:new    ;}
	.st2{fill:#FF8B00;}
</style>
<path class="st0" d="M976.8,410.9c-5.8-10.2-13.4-15.4-22.7-15.4c-0.1,0-0.2,0-0.2,0c-26.7,0.4-56.4,27.2-74.2,43.3
	c-2.3,2.1-8.5,7.6-10.3,9.1c-12.1,9.3-21.3,13-24.8,9.8c-0.6-0.6-0.9-1.8-0.9-3.4c0.6-14.2,28.1-51.2,35.3-57.2
	c4.1-3.2,4.2-7.2,2.9-9.9c-1.7-3.6-6-5.6-10.3-4.7c-3.5,1-8.7,5.4-14.4,12.1c-1.4-3.5-4.1-6.7-7.5-9.1c-5.8-3.9-13.3-4.8-20.9-2.5
	c-17.1,5-30.3,21.7-35.8,36c-4.2,11-4.2,20.8,0,27.7c1.9,3,4.7,4.7,8.1,4.9c9.5,0.7,22.6-9.9,32.8-20.2c-3.8,9.7-6.9,22-2.8,29.5
	c2.2,4,6,6.1,11.4,6.3c10.2,0.5,20.7-6.7,30.7-14.6c2.4-1.9,6.3-5.4,10.6-9.2c17.1-15.5,45.7-41.3,70-41.7h0.1
	c6.9,0,12.7,4.1,17.2,12.2c14.6,25.8,12.4,82.3,7,96.3c-11,24.6-44.5,45.5-89.6,56c-45.6,10.6-113.9,15-164.8,16.7
	c30.1-37.1,54.7-94.6,42.5-116.7c-2.7-5-8.7-10.5-21.8-8.7c-0.3,0-0.8,0.1-1.4,0.3l35.5-41.2l0.2-0.2c1.2-1.8,0.7-3.2,0.4-3.9
	c-1.3-2.5-5.1-2.9-8.8-3.1c-6.6-0.3-12.2,1-18.8,4.4c-4.1,2.1-8.3,4.5-12.5,7.3c-8.8,5.8-16.9,12.5-22.9,17.6
	c-1.1,0.9-2.2,1.9-3.3,2.8c-4.5,3.9-8.7,7.5-13.6,10.7c-3.8,2.4-13.7,8.9-17.8,4.8c-0.6-0.6-0.9-1.8-0.9-3.4
	c0.6-14.2,28.1-51.3,35.3-57.2c4.1-3.2,4.2-7.2,2.9-9.9c-1.7-3.6-6-5.6-10.3-4.7c-3.5,1-8.7,5.4-14.4,12.1c-1.4-3.5-4.1-6.7-7.5-9.1
	c-5.8-3.9-13.3-4.8-20.9-2.5c-14.1,4.1-27.7,17.3-34.8,33.6c-4.6,10.5-5.4,20.6-2.2,27.7l-0.7-0.3c-8.5,19.6-27.9,32.4-52,34.1
	c-34.8,2.3-56.3-25.8-62-81c-3.5-33.2-17.3-62-41.1-85.7c15.9,3.4,34.1,5.1,53.1,5.1c16.8,0,31.4-1.2,44.5-3.7
	c58.5-9.6,102.2-38.1,123.1-80.3c13.8-28.1,22.3-74.1,4.6-119.1c-10.9-27.1-29.4-50.3-55.1-68.8C684.7,18.2,734.6,9,777.2,19.4
	c37.2,9,60.8,24.9,70,47.4c7.9,20.2,3.7,36.2-1.3,46.1c-6.7,13-18.5,23.1-31.8,27.3c-0.4-0.3-0.9-0.7-1.6-1.2
	c-2.6-1.9-6.2-2.5-8.9-1.7c-1.7,0.5-2.9,1.7-3.4,3.3c-0.5,2.1,0.1,4,1.7,5.2c3.5,2.7,11.2,1.6,13.9,0.3c16.1-6,28.6-16.9,35.2-30.5
	c8-15.5,9-33.7,2.8-51.3c-10.1-27.6-39.4-51.7-73-60C731-7.5,675.6,3.5,628.7,34.3c-19-12.4-43.9-21.3-72.1-26
	C488.1-2.9,410.1,11.8,343.2,49c-10.5,6.2-19.8,12.8-26.9,18c-21.9-11.9-46.7-19.2-73.8-21.9C195.3,40,143.3,53.6,100,82.3
	c-45,29.5-77.1,72.3-90.6,120.4C-7.5,265.4-4.2,355.9,41.1,416.6c20.3,27.1,52.7,50.4,89,63.7c44.1,16.3,91.4,17.3,136.9,3
	c80.7-25.8,132.9-100.7,179.4-175.6c21.7,15.9,47.8,44.3,52.9,90.5c3.8,36.9,14.8,62.9,32.8,77.2c13.2,10.5,30.1,14.6,50.1,12
	c21.5-2.5,40.8-17.1,50.9-38.5c1.7,1.2,3.6,1.9,5.8,1.9c0.1,0,0.3,0,0.4,0c9.5,0,22-10.3,31.9-20.2c-3.8,9.7-6.9,22-2.8,29.5
	c2.2,4,6,6.1,11.4,6.3c2.7,0.1,5.6-0.3,8.5-1.2c2.8-0.9,5.6-2.2,8.8-4c2.8-1.6,5.8-3.6,9.2-6.2c2.9-2.2,5.9-4.6,9.3-7.4l2.3-2
	c2.2-1.9,4.4-3.8,6.7-5.6l1-0.8c8.2-6.5,15.2-11.5,22.1-15.7c3.6-2.2,7.8-4.6,12.3-6.2c-0.5,0.6-1.1,1.2-1.6,1.8
	c-3,3.4-6,6.8-9,10.2c-7.8,8.7-15.5,17.3-22.8,25.3c-5.3,5.8-10.6,11.7-15.9,17.5l-1,1.1c-1.9,2-2.5,5.2-1.4,7.7
	c0.8,1.7,2.2,2.7,3.9,2.7c2.6,0.1,5.9-2.4,12.1-7.3c6.5-5.2,14.6-11.6,20.5-12c5.1-0.6,8.5,0.8,10.3,4.4
	c9.2,18.6-23.7,85.8-51.6,114.8c-21.6,0.5-39.3,1-54.6,1.3c-26.2,0.6-45.2,1.1-64.3,1.7c-41.1,1.3-62.7,22.5-65.4,41.6
	c-1.8,11.7,3.5,31.8,25.8,39.3c5.7,2,12.3,2.9,19.8,2.9c17.9,0,40.5-5.6,64.7-16.3c34.7-15.4,67.3-39,89.6-65
	c77.3-2.6,134.7-8.3,170.7-17c44.9-10.3,79.6-31.5,92.7-56.6c0.7-1,1.3-2.4,1.9-4.1l0.9-2.2l-0.2-0.1
	C991,489.1,991.5,436.9,976.8,410.9z M804.3,443.9c-1.1-0.8-1.6-2.7-1.5-5.4c0.5-11,11.8-32.7,29.2-43c7.4-4.5,15.8-4.5,18.2-1.4
	c1.4,1.8,2.1,3.8,2.3,6.2l-0.3,0.4c-2.5,3.4-5.4,7.2-8,11.8C821.1,437,807.4,446,804.3,443.9z M317.1,74.3
	c50.6,29.2,81.3,82.3,86.5,149.6c0.9,12.3,0,24.7-2.5,37c-19.3,16.3-45.2,24.5-75,23.6c-35.7-0.9-61.1-22-69.5-58
	C246.1,183.9,260.9,120.5,317.1,74.3z M248.5,473.4C165.1,496.9,79.1,451.7,49,410C3.9,348.4-0.4,262.5,15.2,204.7
	C39.3,117,130.9,50,221.7,50c6.7,0,13.3,0.4,19.9,1.1c25,2.5,48.4,9.3,69.8,20.2c-57.1,47.8-71.7,112.9-60.7,156.7
	c9.3,38.2,37.3,61.6,74.8,62.6c28.4,0.9,53.5-6.1,73.1-20c-7,25.3-20.5,48.4-38.5,65.6c-21.7,21.2-48.2,31.9-74.8,30
	c-0.1-0.2-0.2-0.3-0.3-0.5c-0.3-0.4-0.5-0.9-0.9-1.5c-1.9-2.7-5-4.6-7.8-4.5c-1.8,0-3.3,0.8-4.3,2.3c-1.6,2.4-1,4.2-0.5,5.2
	c2.4,4.6,12.6,4.8,12.5,4.9c28.7,2.3,57.3-8.9,80.4-31.5c20.6-19.7,35.6-46.6,42.3-76c6.2-5.8,11.7-12.2,16.7-19.5
	c17.9-25.7,23.3-61.4,12.9-86.8l-1.5-2.9c-2-3.2-5.1-5.4-7.7-5.5c-1.6-0.1-2.9,0.5-3.9,1.7c-1.2,1.6-1.5,3.4-0.8,5.2
	c1.2,3.1,5.3,5.2,9.1,6.1c8.4,23.7,3.3,55.3-12.9,78.9c-3.3,4.7-6.7,8.8-10.2,12.5c1.6-10.7,2-21,1.2-30.6
	c-5.3-68.9-36.4-123.1-87.7-153.1c7.1-5.6,15.2-10.9,24.7-16.1c70.9-40,154.4-42.8,209-32.1c25.2,5,43,11.5,60.5,22.2
	c-19.8,14.8-38.1,33.6-54.4,56c-40.2,54.3-74.4,111.1-99.4,152.6C396.8,360.6,345.2,445.5,248.5,473.4z M462.7,301
	c-1.5-1.1-2.9-2.2-4.2-3.3c-1.3-1.1-2.6-2.1-3.9-3c6.9-10.9,13.9-22.3,20.8-33.9l2.4-4c28.8-47.5,58.7-96.5,95.8-146.9
	c17.8-23.6,36.8-42.6,56.3-56.5c26.1,17.6,44.4,39.4,54.4,65.1c15.6,39.7,8.2,81.4-4,107.1C640.6,306.8,529.3,318.6,462.7,301z
	 M632.2,445.9l-0.3-0.3c0.1-0.2,0.2-0.4,0.3-0.6l-1.9-0.8l1.1-0.6l1.2,2L632.2,445.9z M641.5,443.2c-1.1-0.8-1.6-2.7-1.5-5.4
	c0.5-11,11.8-32.7,29.2-43c7.4-4.5,15.8-4.5,18.2-1.4c1.4,1.8,2.1,3.8,2.3,6.2l-0.3,0.4c-2.5,3.4-5.4,7.2-8,11.8
	C658.2,436.2,644.5,445.2,641.5,443.2z M547.7,660.9c-15.1-5.4-24-18.5-21.6-32.1c2-15.9,20.2-33.1,56-35.6
	c45.3-1.5,71.8-2.2,91.1-2.7c9.3-0.2,17-0.4,24.4-0.7C648.6,640.2,571.6,669.3,547.7,660.9z"/>
<g class="st1">
	<path class="st0" d="M98.8,609.9l13.8-1.3c0.8,4.6,2.5,8,5.1,10.2c2.5,2.2,6,3.3,10.3,3.3c4.6,0,8-1,10.3-2.9
		c2.3-1.9,3.5-4.2,3.5-6.8c0-1.7-0.5-3.1-1.5-4.2c-1-1.2-2.7-2.2-5.1-3c-1.7-0.6-5.5-1.6-11.4-3.1c-7.6-1.9-12.9-4.2-16-7
		c-4.3-3.9-6.5-8.6-6.5-14.1c0-3.6,1-6.9,3-10c2-3.1,5-5.5,8.8-7.1c3.8-1.6,8.4-2.4,13.8-2.4c8.8,0,15.5,1.9,19.9,5.8
		c4.5,3.9,6.8,9,7,15.5l-14.2,0.6c-0.6-3.6-1.9-6.2-3.9-7.8c-2-1.6-5-2.4-9-2.4c-4.1,0-7.4,0.8-9.7,2.5c-1.5,1.1-2.3,2.5-2.3,4.4
		c0,1.7,0.7,3.1,2.1,4.3c1.8,1.5,6.1,3.1,13,4.7c6.9,1.6,12,3.3,15.3,5.1s5.9,4.1,7.8,7.1s2.8,6.8,2.8,11.2c0,4-1.1,7.8-3.4,11.3
		c-2.2,3.5-5.4,6.1-9.5,7.8c-4.1,1.7-9.2,2.6-15.3,2.6c-8.9,0-15.7-2.1-20.5-6.2C102.5,623.7,99.7,617.8,98.8,609.9z"/>
	<path class="st0" d="M183.7,632.8v-58.4h-20.9v-11.9h55.9v11.9h-20.8v58.4H183.7z"/>
	<path class="st0" d="M227.7,562.5h14.2v38.1c0,6,0.2,10,0.5,11.7c0.6,2.9,2.1,5.2,4.3,6.9c2.3,1.7,5.4,2.6,9.4,2.6
		c4,0,7.1-0.8,9.1-2.5c2-1.6,3.3-3.7,3.7-6.1c0.4-2.4,0.6-6.4,0.6-11.9v-38.9h14.2v36.9c0,8.4-0.4,14.4-1.2,17.9s-2.2,6.4-4.2,8.8
		s-4.8,4.3-8.3,5.7c-3.5,1.4-8,2.1-13.5,2.1c-6.7,0-11.8-0.8-15.3-2.3c-3.5-1.5-6.2-3.6-8.2-6c-2-2.5-3.3-5.1-4-7.8
		c-0.9-4-1.4-10-1.4-17.8V562.5z"/>
	<path class="st0" d="M298.9,632.8v-70.3h48.2v11.9h-34V591h29.3v11.9h-29.3v29.9H298.9z"/>
	<path class="st0" d="M358.8,632.8v-70.3H407v11.9h-34V591h29.3v11.9H373v29.9H358.8z"/>
</g>
<g class="st1">
	<path class="st2" d="M80.9,626.2l-52.8-23v-12.7l52.8-22.8v15l-36.8,14.1l36.8,14.6V626.2z"/>
</g>
<g class="st1">
	<path class="st2" d="M412,636.3l19.1-79.6h11.1l-19.3,79.6H412z"/>
	<path class="st2" d="M447,626.3v-14.9l36.9-14.5L447,582.6v-14.8l52.8,22.9v12.6L447,626.3z"/>
</g>
</svg>
