<svg xmlns="http://www.w3.org/2000/svg" viewBox="0 0 1015.76 128.23"><defs><style>.cls-1{fill:#fff;}</style></defs><title>Asset 5</title><g id="Layer_2" data-name="Layer 2"><g id="Layer_1-2" data-name="Layer 1"><path class="cls-1" d="M6.94,1.56h55A33.43,33.43,0,0,1,67.08,2a39.6,39.6,0,0,1,5.34,1.24,37,37,0,0,1,5.24,2.06,32.63,32.63,0,0,1,4.85,2.88,28,28,0,0,1,4.17,3.65,22.31,22.31,0,0,1,3.23,4.44,21.4,21.4,0,0,1,2,5.24,20.5,20.5,0,0,1,.52,6,28.43,28.43,0,0,1-1.17,7.16,20.74,20.74,0,0,1-3.25,6.43,24.21,24.21,0,0,1-5.75,5.43,34.33,34.33,0,0,1-8.78,4.18,39.72,39.72,0,0,1,5.56,5.09,61,61,0,0,1,4.63,5.8q2.13,3,4,6.26c1.24,2.16,2.45,4.31,3.63,6.47.63,1.16,1.32,2.4,2,3.74s1.53,2.71,2.37,4.1,1.71,2.8,2.62,4.2,1.84,2.75,2.79,4,1.92,2.47,2.91,3.59a25.93,25.93,0,0,0,3,2.89,15,15,0,0,0,3,1.92,6.86,6.86,0,0,0,2.93.7v2.31l-31.95,0a56.63,56.63,0,0,1-3.74-6.23q-1.84-3.51-3.64-7.32T70,80.58c-1.24-2.64-2.51-5.19-3.83-7.66s-2.68-4.8-4.1-7a37.65,37.65,0,0,0-4.51-5.7,20.84,20.84,0,0,0-5-3.84A12,12,0,0,0,46.82,55h-5V90.24a9.1,9.1,0,0,0,.75,3.62A10.18,10.18,0,0,0,44.59,97a9.87,9.87,0,0,0,3.06,2.14,9,9,0,0,0,3.8.8h2.34v1.94H6.94V99.56H8.88a14.55,14.55,0,0,0,3.74-.49A9.27,9.27,0,0,0,16,97.4a8.55,8.55,0,0,0,2.42-3.11,11.31,11.31,0,0,0,.92-4.83V14a11,11,0,0,0-.89-4.58,9.81,9.81,0,0,0-2.33-3.26,9.53,9.53,0,0,0-3.23-2A10.61,10.61,0,0,0,9.25,3.5H6.94ZM41.37,7V49.2h7a29.31,29.31,0,0,0,5.7-.51,21.58,21.58,0,0,0,4.64-1.43,17.75,17.75,0,0,0,3.7-2.17,16.61,16.61,0,0,0,2.82-2.8A17.9,17.9,0,0,0,67.27,39a20.63,20.63,0,0,0,1.36-3.57,27.84,27.84,0,0,0,.77-3.76,29,29,0,0,0,.25-3.8,24.7,24.7,0,0,0-.22-3.74,22.33,22.33,0,0,0-.82-3.69A20.33,20.33,0,0,0,67.17,17a17.81,17.81,0,0,0-5-5.94,18.29,18.29,0,0,0-3.64-2.15,21.37,21.37,0,0,0-4.46-1.39A26.67,26.67,0,0,0,48.76,7Z"/><path class="cls-1" d="M176.43.41l30.18,79.38c.41,1.07.81,2.15,1.22,3.24s.85,2.17,1.31,3.26,1,2.16,1.52,3.2a25,25,0,0,0,1.82,3,18.8,18.8,0,0,0,2.26,2.63A16.73,16.73,0,0,0,221,98.93a20.18,20.18,0,0,0,4.24,1v1.94H178V99.9a19.87,19.87,0,0,0,4-.59,10.22,10.22,0,0,0,2.77-1.16,6.18,6.18,0,0,0,1.76-1.58,5.48,5.48,0,0,0,.9-1.89,7.62,7.62,0,0,0,.22-2.09,12,12,0,0,0-.26-2.16,16.8,16.8,0,0,0-.56-2.11c-.22-.7-.45-1.35-.68-2l-8.54-22H147.4l-7.76,22.8a14.78,14.78,0,0,0-.71,3.86,7.55,7.55,0,0,0,.78,3.79,8.16,8.16,0,0,0,3,3.19,14.83,14.83,0,0,0,5.87,2v1.94H118.34V99.9a14.27,14.27,0,0,0,5.72-2.33,21.28,21.28,0,0,0,4.46-4.18,29,29,0,0,0,3.33-5.28,52.58,52.58,0,0,0,2.38-5.63l29-82.07Zm-26.24,57.2,24.7.1L162.1,23.65Z"/><path class="cls-1" d="M326.18,1.56,260.78,96h41.41a36.68,36.68,0,0,0,7.26-.68,17,17,0,0,0,6.42-2.75,22.18,22.18,0,0,0,5.56-5.87,44.12,44.12,0,0,0,4.75-10.06h1.93l-3.87,25.18H230.15L295.21,7H256.49a18.45,18.45,0,0,0-12.85,5.18,21.91,21.91,0,0,0-4.49,6.42,28.47,28.47,0,0,0-2.4,9h-2.31l2.31-26Z"/><path class="cls-1" d="M392.73.41l30.18,79.38q.61,1.6,1.23,3.24c.4,1.08.84,2.17,1.31,3.26s1,2.16,1.51,3.2a26.33,26.33,0,0,0,1.82,3A18.8,18.8,0,0,0,431,95.1a16.67,16.67,0,0,0,6.25,3.83,20.23,20.23,0,0,0,4.23,1v1.94H394.3V99.9a20,20,0,0,0,4-.59,10.35,10.35,0,0,0,2.77-1.16,6.14,6.14,0,0,0,1.75-1.58,5.48,5.48,0,0,0,.9-1.89,7.25,7.25,0,0,0,.22-2.09,12,12,0,0,0-.25-2.16,21.1,21.1,0,0,0-.56-2.11c-.23-.7-.46-1.35-.68-2l-8.54-22H363.71L356,87.11a14.8,14.8,0,0,0-.72,3.86,7.55,7.55,0,0,0,.79,3.79A8.13,8.13,0,0,0,359,98a14.89,14.89,0,0,0,5.87,2v1.94H334.65V99.9a14.23,14.23,0,0,0,5.71-2.33,21,21,0,0,0,4.46-4.18,29.64,29.64,0,0,0,3.34-5.28,54.7,54.7,0,0,0,2.38-5.63l29-82.07ZM366.5,57.61l24.7.1L378.4,23.65Z"/><path class="cls-1" d="M530,.41a24.07,24.07,0,0,1,4.47.42q2.24.44,4.44,1l4.43,1a29.36,29.36,0,0,0,4.45.68,4,4,0,0,0,2.78-.61A7.08,7.08,0,0,0,552.42.41h2.31V26.34H552a45.9,45.9,0,0,0-4.44-10,22.39,22.39,0,0,0-5.24-6,17,17,0,0,0-6.12-3,41,41,0,0,0-7.07-1.1,12,12,0,0,0-2.6.08,17.36,17.36,0,0,0-2.69.61A17.74,17.74,0,0,0,521.23,8a15.24,15.24,0,0,0-4.51,3.56A11.13,11.13,0,0,0,515.14,14a11.33,11.33,0,0,0-.92,2.74,11,11,0,0,0-.15,3.05,15.05,15.05,0,0,0,1.66,5.53,22.7,22.7,0,0,0,3.48,4.83,36.52,36.52,0,0,0,4.84,4.31q2.75,2,5.77,4T536,42.31q3.18,1.92,6.21,3.93T548,50.41A37,37,0,0,1,552.79,55q1.83,2.15,3.38,4.28a30.46,30.46,0,0,1,2.71,4.51,24.56,24.56,0,0,1,1.8,5.07,25.48,25.48,0,0,1,.65,5.91,26.11,26.11,0,0,1-.54,5.3,27.27,27.27,0,0,1-7.88,14,28.72,28.72,0,0,1-4.63,3.57,31.57,31.57,0,0,1-5.58,2.78,36.76,36.76,0,0,1-6.5,1.8,44.34,44.34,0,0,1-7.4.71,25.34,25.34,0,0,1-3.11-.11c-1.08-.11-2.18-.25-3.29-.43s-2.23-.38-3.35-.59-2.22-.45-3.3-.7l-3.15-.73c-1-.24-2-.45-2.87-.63s-1.73-.33-2.5-.45a14.7,14.7,0,0,0-2-.17,4.86,4.86,0,0,0-2.74.87,5,5,0,0,0-1.93,2.57h-2.31L498.58,74h3.13a19.06,19.06,0,0,0,.67,4.38A25,25,0,0,0,504,82.67a26.46,26.46,0,0,0,2.5,4.1,30.9,30.9,0,0,0,3.27,3.71,29,29,0,0,0,3.9,3.14,25,25,0,0,0,4.4,2.4,24.74,24.74,0,0,0,4.82,1.5A22.29,22.29,0,0,0,528,98a16.59,16.59,0,0,0,5.63-1.17,19.74,19.74,0,0,0,5.26-3,17.77,17.77,0,0,0,4-4.49,12.26,12.26,0,0,0,1.8-5.65,10,10,0,0,0-.92-4.75,18,18,0,0,0-3-4.44,34.78,34.78,0,0,0-4.51-4.2c-1.73-1.37-3.59-2.74-5.58-4.08s-4-2.69-6.16-4-4.2-2.68-6.24-4-4-2.76-5.85-4.17a43.08,43.08,0,0,1-5-4.35,30.79,30.79,0,0,1-6-8.75A23.67,23.67,0,0,1,499.37,31a26,26,0,0,1,.44-4.65,32.12,32.12,0,0,1,1.34-5,34.9,34.9,0,0,1,2.28-5.12,32.25,32.25,0,0,1,3.25-4.87A30.88,30.88,0,0,1,510.94,7a27.46,27.46,0,0,1,5.27-3.47,28.8,28.8,0,0,1,6.33-2.32A31.7,31.7,0,0,1,530,.41Z"/><path class="cls-1" d="M568.61,23.65,569,0c.66.14,1.31.29,1.94.48l1.93.52a18.59,18.59,0,0,0,1.94.41,12.61,12.61,0,0,0,2,.15h75.51a8.59,8.59,0,0,0,1.53-.15A16.21,16.21,0,0,0,655.45,1l1.7-.52c.56-.19,1.12-.34,1.66-.48l.79,23.65h-1.94a26.14,26.14,0,0,0-1.24-6.08,19.55,19.55,0,0,0-2.52-5.05,12.57,12.57,0,0,0-3.63-3.47,8.56,8.56,0,0,0-4.62-1.29H625.13V89.05a11.54,11.54,0,0,0,.68,3.88,10.25,10.25,0,0,0,5.54,6,11.88,11.88,0,0,0,5,1h1.15v1.91H590.29V99.53h3.09a9.43,9.43,0,0,0,7-3,9.81,9.81,0,0,0,2-3.2,10.61,10.61,0,0,0,.7-3.86V7.76H582.19a6.22,6.22,0,0,0-2.32.44,7.55,7.55,0,0,0-2,1.23,11.86,11.86,0,0,0-1.77,1.83,18,18,0,0,0-1.53,2.27,21.29,21.29,0,0,0-1.26,2.53c-.38.89-.71,1.77-1,2.65s-.55,1.75-.78,2.59-.42,1.62-.58,2.35Z"/><path class="cls-1" d="M664,1.56h46.82l0,1.94h-1.54a13.3,13.3,0,0,0-4.15.65,10,10,0,0,0-3.45,1.92,9.33,9.33,0,0,0-2.37,3.17,10.1,10.1,0,0,0-.88,4.34V65.47a28.24,28.24,0,0,0,2,10.77,22.5,22.5,0,0,0,12.79,12.57A22.25,22.25,0,0,0,717.49,90a21.66,21.66,0,0,0,4.24.29,27.72,27.72,0,0,0,4.42-.51,26.75,26.75,0,0,0,4.32-1.26,24,24,0,0,0,4-2,21.78,21.78,0,0,0,3.64-2.82,22.81,22.81,0,0,0,3.1-3.64,23.06,23.06,0,0,0,2.38-4.49,28.4,28.4,0,0,0,1.53-5.36,33.05,33.05,0,0,0,.55-6.23V13.58a10.52,10.52,0,0,0-1-4.68,9.27,9.27,0,0,0-2.45-3.12A9.81,9.81,0,0,0,739,4.05a13.3,13.3,0,0,0-3.68-.55h-1.94V1.56h46.86V3.5h-1.57a14.52,14.52,0,0,0-3.71.5,9.21,9.21,0,0,0-3.37,1.68,8.87,8.87,0,0,0-2.43,3.22,12.08,12.08,0,0,0-.93,5V89.46a11.66,11.66,0,0,0,1,5,9.06,9.06,0,0,0,2.62,3.37,11,11,0,0,0,4,1.92,18.54,18.54,0,0,0,4.86.61v1.53H745.72v-19A41.58,41.58,0,0,1,739,92.14a36.38,36.38,0,0,1-8.16,6.4,33.26,33.26,0,0,1-9.16,3.57A35.39,35.39,0,0,1,712,103a53.16,53.16,0,0,1-6-.63,44.48,44.48,0,0,1-6.13-1.41,35.35,35.35,0,0,1-6-2.41,30.94,30.94,0,0,1-5.54-3.64,30.07,30.07,0,0,1-8.61-11.57A39.68,39.68,0,0,1,677.32,75a54.87,54.87,0,0,1-.88-10.28V15.11a13.94,13.94,0,0,0-1-5.57A10.06,10.06,0,0,0,673,6a9,9,0,0,0-3.47-1.9,13.82,13.82,0,0,0-3.92-.57H664Z"/><path class="cls-1" d="M786.07,1.56H857.7l.75,22.84h-1.94a30.06,30.06,0,0,0-1.23-6.32,20.77,20.77,0,0,0-2.62-5.58,13.84,13.84,0,0,0-4.08-4A10.27,10.27,0,0,0,843,7H820.51V48.42h20.14a7.48,7.48,0,0,0,3.9-1.07,11,11,0,0,0,3.14-2.89,16.71,16.71,0,0,0,2.25-4.21,21.1,21.1,0,0,0,1.19-5h1.53V64.68h-1.94A11.7,11.7,0,0,0,849.58,60a11.52,11.52,0,0,0-2.51-3.4,10.68,10.68,0,0,0-7.2-2.81H820.51V86a29.51,29.51,0,0,0,.39,4.63,14,14,0,0,0,1.51,4.52A9,9,0,0,0,831,99.9h2.31v1.94H786.07V99.9H788a10.82,10.82,0,0,0,4.24-.81,9.82,9.82,0,0,0,3.3-2.27,10.22,10.22,0,0,0,2.14-3.43,12,12,0,0,0,.77-4.34V14.36a13.28,13.28,0,0,0-.51-3.54,11.64,11.64,0,0,0-1.57-3.39,9,9,0,0,0-2.65-2.55,7,7,0,0,0-3.78-1h-3.88Z"/><path class="cls-1" d="M865.9,1.56h71.62l.75,22.84h-1.94a30.68,30.68,0,0,0-1.22-6.32,21.08,21.08,0,0,0-2.62-5.58,13.87,13.87,0,0,0-4.09-4A10.26,10.26,0,0,0,922.79,7H900.33V48.42h20.15a7.47,7.47,0,0,0,3.89-1.07,11.17,11.17,0,0,0,3.15-2.89,16.71,16.71,0,0,0,2.25-4.21,21.6,21.6,0,0,0,1.19-5h1.53V64.68h-1.94A11.7,11.7,0,0,0,929.41,60a11.37,11.37,0,0,0-2.52-3.4,10.68,10.68,0,0,0-7.2-2.81H900.33V86a29.51,29.51,0,0,0,.39,4.63,14,14,0,0,0,1.52,4.52,8.94,8.94,0,0,0,8.57,4.8h2.32v1.94H865.9V99.9h1.94a10.78,10.78,0,0,0,4.23-.81,9.73,9.73,0,0,0,3.3-2.27,10.24,10.24,0,0,0,2.15-3.43,12,12,0,0,0,.76-4.34V14.36a13.28,13.28,0,0,0-.51-3.54,11.61,11.61,0,0,0-1.56-3.39,9,9,0,0,0-2.66-2.55,6.91,6.91,0,0,0-3.77-1H865.9Z"/><path class="cls-1" d="M997.75.75a13.39,13.39,0,0,1,7.43,2.53A21.81,21.81,0,0,1,1011,9.43a30,30,0,0,1,3.69,8.55,31.48,31.48,0,0,1,1,9.7,124.2,124.2,0,0,1-2.16,18.86q-1.78,9.33-4.15,18.6t-4.95,18.51q-2.58,9.24-4.57,18.58h-4.74q-1.9-9.35-4.48-18.65T985.74,65q-2.34-9.31-4-18.63a120.12,120.12,0,0,1-1.92-18.65c0-1.33,0-2.74.14-4.24a43.16,43.16,0,0,1,.53-4.58,39.31,39.31,0,0,1,1-4.57,26.36,26.36,0,0,1,1.64-4.3,22,22,0,0,1,2.37-3.79,14.57,14.57,0,0,1,3.16-3,14.32,14.32,0,0,1,4-1.9A15.73,15.73,0,0,1,997.75.75Z"/><path class="cls-1" d="M1000,128.23H7a7,7,0,1,1,0-14h993a7,7,0,1,1,0,14Z"/></g></g></svg>