<?xml version="1.0" encoding="utf-8"?>
<!-- Generator: Adobe Illustrator 22.0.1, SVG Export Plug-In . SVG Version: 6.00 Build 0)  -->
<svg version="1.1" id="Layer_1" xmlns="http://www.w3.org/2000/svg" xmlns:xlink="http://www.w3.org/1999/xlink" x="0px" y="0px"
	 viewBox="0 0 147 195.6" style="enable-background:new 0 0 147 195.6;" xml:space="preserve">
<style type="text/css">
	.st0{fill:#E0E0E0;}
	.st1{fill:#4C4C4B;}
	.st2{fill:#00BDFF;}
	.st3{fill:#55ACAA;}
	.st4{fill:#AA9C55;}
	.st5{fill:#FF8B00;}
	.st6{fill:#8BA2D9;}
	.st7{fill:#FF0000;}
</style>
<title>Asset 5</title>
<g>
	<path class="st0" d="M10.6,0h119.8c5.9,0,10.6,4.8,10.6,10.6v170.1c0,5.9-4.8,10.6-10.6,10.6H10.6c-5.9,0-10.6-4.8-10.6-10.6V10.6
		C0,4.8,4.8,0,10.6,0z"/>
	<path class="st1" d="M16.5,4.3h119.8c5.9,0,10.6,4.8,10.6,10.6V185c0,5.9-4.8,10.6-10.6,10.6H16.5c-5.9,0-10.6-4.8-10.6-10.6V14.9
		C5.9,9.1,10.7,4.3,16.5,4.3z"/>
	<g>
		<path class="st2" d="M39.8,63.8c0,3-1.2,5.7-3.2,7.6c-2,2-4.7,3.2-7.6,3.2s-5.7-1.2-7.6-3.2c-2-2-3.2-4.7-3.2-7.6
			c0-3,1.2-5.7,3.2-7.6c2-2,4.7-3.2,7.6-3.2s5.7,1.2,7.6,3.2C38.6,58.2,39.8,60.9,39.8,63.8z"/>
		<path class="st3" d="M29,87.6c2,0,4.7,2.4,6,3.7c1.3,1.3,3,4.7,3,6.7c0,1,0.7,3.5,0.4,4.3c-0.4,0.9,0,3.2-0.7,3.9
			c-1.3,1.3-6.7,2.1-8.7,2.1s-7.4-0.8-8.7-2.1c-0.7-0.7-0.3-3-0.7-3.9c-0.4-0.9,0.4-3.3,0.4-4.3c0-2,1.7-5.4,3-6.7
			C24.3,89.9,27,87.6,29,87.6z"/>
		<path class="st4" d="M29,122.1c1,0,3.7,3.5,4.4,4.2c0.7,0.7,2.9,4.7,2.9,5.7c0,0.5,1.7,4.1,1.5,4.5c-0.2,0.4,1.4,4,1,4.3
			c-0.7,0.7-8.8,1.1-9.8,1.1c-1,0-9.1-0.4-9.8-1.1c-0.3-0.3,1.2-3.8,1-4.3c-0.2-0.4,1.5-4,1.5-4.5c0-1,2.2-5,2.9-5.7
			C25.3,125.6,28,122.1,29,122.1z"/>
		<polygon class="st5" points="29,156.6 23.6,165.9 20.9,170.6 18.2,175.3 29,175.3 39.8,175.3 37.1,170.6 34.4,165.9 		"/>
	</g>
	<g>
		<path class="st6" d="M30.7,25.3c-0.6-0.2-1.4-0.5-2.5-0.7c-2.1-0.5-2.3-0.9-2.3-1.5c0-1.4,1.6-1.5,2.3-1.5c1.2,0,2.1,0.4,3.1,1.2
			l0.7,0.6l1.2-2.3l-0.4-0.4c-1.1-1.1-2.8-1.7-4.6-1.7c-3,0-5.1,1.7-5.1,4.2c0,1.6,0.8,2.7,2.5,3.4c0.6,0.2,1.4,0.5,2.4,0.7
			c2.1,0.5,2.5,0.7,2.5,1.4c0,0.3-0.1,0.6-0.3,0.8c-0.4,0.4-1.1,0.6-2,0.6c-1.5,0-2.5-0.3-3.5-1.2l-0.7-0.6l-1.1,2.3l0.4,0.3
			c1.2,1.1,2.9,1.7,5,1.7c3.1,0,5.1-1.6,5.1-4.1C33.3,27,32.4,25.9,30.7,25.3z"/>
		<polygon class="st6" points="37,19.1 34.2,19.1 34.2,32.5 43,32.5 43,30 37,30 		"/>
		<rect x="44.5" y="19.1" class="st6" width="2.8" height="13.4"/>
		<path class="st6" d="M53.6,19.1h-4.7v13.4h4.7c4.2,0,6.8-2.5,6.8-6.7C60.3,21.6,57.8,19.1,53.6,19.1z M51.7,21.7h1.9
			c2.7,0,4,1.3,4,4.1c0,2.8-1.3,4.1-4,4.1h-1.9V21.7z"/>
		<polygon class="st6" points="61.9,32.5 70.9,32.5 70.9,30 64.7,30 64.7,27.1 70.5,27.1 70.5,24.5 64.7,24.5 64.7,21.7 70.9,21.7 
			70.9,19.1 61.9,19.1 		"/>
		<path class="st6" d="M79.5,25.3c-0.6-0.2-1.4-0.5-2.5-0.7c-2.1-0.5-2.3-0.9-2.3-1.5c0-1.4,1.6-1.5,2.3-1.5c1.2,0,2.1,0.4,3.1,1.2
			l0.7,0.6l1.2-2.3l-0.4-0.4C80.6,19.6,78.9,19,77,19c-3,0-5.1,1.7-5.1,4.2c0,1.6,0.8,2.7,2.5,3.4c0.6,0.2,1.4,0.5,2.4,0.7
			c2.1,0.5,2.5,0.7,2.5,1.4c0,0.3-0.1,0.6-0.3,0.8c-0.4,0.4-1.1,0.6-2,0.6c-1.5,0-2.5-0.3-3.5-1.2l-0.7-0.6l-1.1,2.3L72,31
			c1.2,1.1,2.9,1.7,5,1.7c3.1,0,5.1-1.6,5.1-4.1C82,27,81.1,25.9,79.5,25.3z"/>
		<polygon class="st6" points="91.5,24.5 85.7,24.5 85.7,19.1 82.9,19.1 82.9,32.5 85.7,32.5 85.7,27.1 91.5,27.1 91.5,32.5 
			94.3,32.5 94.3,19.1 91.5,19.1 		"/>
		<path class="st6" d="M101.6,19c-3.7,0-6.2,2.7-6.2,6.8c0,4.1,2.4,6.8,6.2,6.8s6.2-2.7,6.2-6.8C107.7,21.7,105.3,19,101.6,19z
			 M101.6,30.1c-2.9,0-3.3-2.7-3.3-4.3c0-1.9,0.6-4.2,3.3-4.2c2.9,0,3.3,2.7,3.3,4.2C104.9,27.4,104.4,30.1,101.6,30.1z"/>
		<polygon class="st6" points="124.3,19.1 121.4,27.7 118.5,19.2 116.4,19.1 113.4,27.7 110.5,19.1 107.6,19.1 112.3,32.5 
			114.5,32.5 117.4,24.2 120.4,32.5 122.5,32.5 127.2,19.1 		"/>
	</g>
	<g>
		<path class="st2" d="M67.8,55.2c1.3-1.3,6.7-2.1,8.7-2.1s7.3,0.8,8.7,2.1c1.3,1.3,2.1,6.7,2.1,8.7c0,2-0.8,7.3-2.1,8.7
			c-1.3,1.3-6.7,2.1-8.7,2.1s-7.3-0.8-8.7-2.1c-1.3-1.3-2.1-6.7-2.1-8.7C65.7,61.9,66.5,56.5,67.8,55.2z"/>
		<path class="st3" d="M76.5,86.1c1.3,0,6.9,2,7.7,2.8c0.9,0.9,3.4,5.9,3.4,7.2s-2,9.6-2.9,10.4c-0.9,0.9-6.9,1.4-8.2,1.4
			s-7.3-0.5-8.2-1.4c-0.9-0.9-2.9-9.1-2.9-10.4s2.5-6.3,3.4-7.2C69.6,88.1,75.1,86.1,76.5,86.1z"/>
		<path class="st4" d="M76.5,119.2c0.7,0,6.4,3.1,6.8,3.6c0.4,0.4,4.7,5.1,4.7,5.8c0,0.7-3.3,11.8-3.7,12.2
			c-0.4,0.4-7.1,0.7-7.8,0.7c-0.7,0-7.3-0.3-7.8-0.7S65,129.2,65,128.5c0-0.7,4.2-5.3,4.7-5.8C70.1,122.3,75.8,119.2,76.5,119.2z"/>
		<polygon class="st5" points="76.5,152.2 64.6,160.9 69.1,174.8 83.8,174.8 88.3,160.9 		"/>
	</g>
	<g>
		<polygon class="st2" points="132.9,53.2 122.2,53.2 111.6,53.2 111.6,63.8 111.6,74.5 122.2,74.5 132.9,74.5 132.9,63.8 		"/>
		<polygon class="st3" points="113,86.9 111,97.6 113,108.3 122.2,108.3 131.4,108.3 133.5,97.6 131.4,86.9 122.2,86.9 		"/>
		<polygon class="st4" points="114.5,120.5 110.3,131.3 114.5,142.1 122.2,142.1 129.9,142.1 134.1,131.3 129.9,120.5 122.2,120.5 
					"/>
		<polygon class="st5" points="128.5,154.2 116,154.2 109.7,165 116,175.8 128.5,175.8 134.7,165 		"/>
	</g>
	<g>
		<path class="st7" d="M33.8,25.9c-0.6-0.2-1.4-0.5-2.5-0.7c-2.1-0.5-2.3-0.9-2.3-1.5c0-1.4,1.6-1.5,2.3-1.5c1.2,0,2.1,0.4,3.1,1.2
			l0.7,0.6l1.2-2.3L36,21.3c-1.1-1.1-2.8-1.7-4.6-1.7c-3,0-5.1,1.7-5.1,4.2c0,1.6,0.8,2.7,2.5,3.4c0.6,0.2,1.4,0.5,2.4,0.7
			c2.1,0.5,2.5,0.7,2.5,1.4c0,0.3-0.1,0.6-0.3,0.8c-0.4,0.4-1.1,0.6-2,0.6c-1.5,0-2.5-0.3-3.5-1.2L27,28.8l-1.1,2.3l0.4,0.3
			c1.2,1.1,2.9,1.7,5,1.7c3.1,0,5.1-1.6,5.1-4.1C36.4,27.5,35.5,26.4,33.8,25.9z"/>
		<polygon class="st7" points="40,19.7 37.3,19.7 37.3,33.1 46.1,33.1 46.1,30.5 40,30.5 		"/>
		<rect x="47.6" y="19.7" class="st7" width="2.8" height="13.4"/>
		<path class="st7" d="M56.7,19.7H52v13.4h4.7c4.2,0,6.8-2.5,6.8-6.7C63.4,22.2,60.9,19.7,56.7,19.7z M54.7,22.3h1.9
			c2.7,0,4,1.3,4,4.1c0,2.8-1.3,4.1-4,4.1h-1.9V22.3z"/>
		<polygon class="st7" points="65,33.1 73.9,33.1 73.9,30.5 67.8,30.5 67.8,27.6 73.6,27.6 73.6,25 67.8,25 67.8,22.2 73.9,22.2 
			73.9,19.7 65,19.7 		"/>
		<path class="st7" d="M82.6,25.9c-0.6-0.2-1.4-0.5-2.5-0.7c-2.1-0.5-2.3-0.9-2.3-1.5c0-1.4,1.6-1.5,2.3-1.5c1.2,0,2.1,0.4,3.1,1.2
			l0.7,0.6l1.2-2.3l-0.4-0.4c-1.1-1.1-2.8-1.7-4.6-1.7c-3,0-5.1,1.7-5.1,4.2c0,1.6,0.8,2.7,2.5,3.4c0.6,0.2,1.4,0.5,2.4,0.7
			c2.1,0.5,2.5,0.7,2.5,1.4c0,0.3-0.1,0.6-0.3,0.8c-0.4,0.4-1.1,0.6-2,0.6c-1.5,0-2.5-0.3-3.5-1.2l-0.7-0.6l-1.1,2.3l0.4,0.3
			c1.2,1.1,2.9,1.7,5,1.7c3.1,0,5.1-1.6,5.1-4.1C85.1,27.5,84.2,26.4,82.6,25.9z"/>
		<polygon class="st7" points="94.6,25 88.8,25 88.8,19.7 86,19.7 86,33.1 88.8,33.1 88.8,27.6 94.6,27.6 94.6,33.1 97.4,33.1 
			97.4,19.7 94.6,19.7 		"/>
		<path class="st7" d="M104.6,19.5c-3.7,0-6.2,2.7-6.2,6.8c0,4.1,2.4,6.8,6.2,6.8s6.2-2.7,6.2-6.8C110.8,22.2,108.4,19.5,104.6,19.5
			z M104.6,30.6c-2.9,0-3.3-2.7-3.3-4.3c0-1.9,0.6-4.2,3.3-4.2c2.9,0,3.3,2.7,3.3,4.2C108,27.9,107.5,30.6,104.6,30.6z"/>
		<polygon class="st7" points="127.4,19.7 124.5,28.3 121.6,19.7 119.5,19.7 116.5,28.2 113.6,19.7 110.7,19.7 115.4,33.1 
			117.6,33.1 120.5,24.7 123.4,33.1 125.6,33.1 130.3,19.7 		"/>
	</g>
	<g>
		<path class="st5" d="M32.2,25.9c-0.6-0.2-1.4-0.5-2.5-0.7c-2.1-0.5-2.3-0.9-2.3-1.5c0-1.4,1.6-1.5,2.3-1.5c1.2,0,2.1,0.4,3.1,1.2
			l0.7,0.6l1.2-2.3l-0.4-0.4c-1.1-1.1-2.8-1.7-4.6-1.7c-3,0-5.1,1.7-5.1,4.2c0,1.6,0.8,2.7,2.5,3.4c0.6,0.2,1.4,0.5,2.4,0.7
			c2.1,0.5,2.5,0.7,2.5,1.4c0,0.3-0.1,0.6-0.3,0.8c-0.4,0.4-1.1,0.6-2,0.6c-1.5,0-2.5-0.3-3.5-1.2l-0.7-0.6l-1.1,2.3l0.4,0.3
			c1.2,1.1,2.9,1.7,5,1.7c3.1,0,5.1-1.6,5.1-4.1C34.7,27.5,33.8,26.4,32.2,25.9z"/>
		<polygon class="st5" points="38.4,19.7 35.6,19.7 35.6,33.1 44.4,33.1 44.4,30.5 38.4,30.5 		"/>
		<rect x="46" y="19.7" class="st5" width="2.8" height="13.4"/>
		<path class="st5" d="M55,19.7h-4.7v13.4H55c4.2,0,6.8-2.5,6.8-6.7C61.8,22.2,59.3,19.7,55,19.7z M53.1,22.3H55c2.7,0,4,1.3,4,4.1
			c0,2.8-1.3,4.1-4,4.1h-1.9V22.3z"/>
		<polygon class="st5" points="63.4,33.1 72.3,33.1 72.3,30.5 66.1,30.5 66.1,27.6 72,27.6 72,25 66.1,25 66.1,22.2 72.3,22.2 
			72.3,19.7 63.4,19.7 		"/>
		<path class="st5" d="M80.9,25.9c-0.6-0.2-1.4-0.5-2.5-0.7c-2.1-0.5-2.3-0.9-2.3-1.5c0-1.4,1.6-1.5,2.3-1.5c1.2,0,2.1,0.4,3.1,1.2
			l0.7,0.6l1.2-2.3l-0.4-0.4c-1.1-1.1-2.8-1.7-4.6-1.7c-3,0-5.1,1.7-5.1,4.2c0,1.6,0.8,2.7,2.5,3.4c0.6,0.2,1.4,0.5,2.4,0.7
			c2.1,0.5,2.5,0.7,2.5,1.4c0,0.3-0.1,0.6-0.3,0.8c-0.4,0.4-1.1,0.6-2,0.6c-1.5,0-2.5-0.3-3.5-1.2l-0.7-0.6l-1.1,2.3l0.4,0.3
			c1.2,1.1,2.9,1.7,5,1.7c3.1,0,5.1-1.6,5.1-4.1C83.5,27.5,82.6,26.4,80.9,25.9z"/>
		<polygon class="st5" points="92.9,25 87.2,25 87.2,19.7 84.4,19.7 84.4,33.1 87.2,33.1 87.2,27.6 92.9,27.6 92.9,33.1 95.7,33.1 
			95.7,19.7 92.9,19.7 		"/>
		<path class="st5" d="M103,19.5c-3.7,0-6.2,2.7-6.2,6.8c0,4.1,2.4,6.8,6.2,6.8s6.2-2.7,6.2-6.8C109.2,22.2,106.8,19.5,103,19.5z
			 M103,30.6c-2.9,0-3.3-2.7-3.3-4.3c0-1.9,0.6-4.2,3.3-4.2c2.9,0,3.3,2.7,3.3,4.2C106.3,27.9,105.9,30.6,103,30.6z"/>
		<polygon class="st5" points="125.8,19.7 122.9,28.3 120,19.7 117.9,19.7 114.9,28.2 112,19.7 109.1,19.7 113.8,33.1 115.9,33.1 
			118.9,24.7 121.8,33.1 124,33.1 128.7,19.7 		"/>
	</g>
</g>
</svg>
